<svg width="24" height="27" viewBox="0 0 24 27" fill="none" xmlns="http://www.w3.org/2000/svg">
<path d="M17.6912 26.0444H6.30873C5.84205 26.0444 5.45505 25.7972 5.45505 25.499C5.45505 25.2009 5.84205 24.9536 6.30873 24.9536H17.6912C18.1578 24.9536 18.5448 25.2009 18.5448 25.499C18.5448 25.7972 18.1578 26.0444 17.6912 26.0444Z" fill="#7F8083"/>
<path d="M19.1993 0.955566H4.80057C2.14879 0.955566 0.000976562 3.13784 0.000976562 5.83216V16.8045C0.000976562 19.4988 2.14879 21.6811 4.80057 21.6811H19.1993C21.8511 21.6811 23.9989 19.4988 23.9989 16.8045V5.83216C23.9989 3.13784 21.8511 0.955566 19.1993 0.955566ZM9.58816 7.44143C10.2601 7.44143 10.8001 7.99005 10.8001 8.66058C10.8001 9.33111 10.2601 9.87973 9.60016 9.87973C8.94022 9.87973 8.40026 9.33111 8.40026 8.66058C8.40026 7.99005 8.92822 7.44143 9.58816 7.44143ZM5.80848 7.44143C6.48043 7.44143 7.02038 7.99005 7.02038 8.66058C7.02038 9.33111 6.48043 9.87973 5.82048 9.87973C5.16054 9.87973 4.62058 9.33111 4.62058 8.66058C4.62058 7.99005 5.13654 7.44143 5.80848 7.44143ZM18.3114 16.6338H5.71249C5.20853 16.6338 4.80057 16.2193 4.80057 15.7194C4.80057 15.2196 5.19653 14.8051 5.68849 14.8051H18.3234C18.8154 14.8051 19.2233 15.2196 19.2233 15.7194C19.2233 16.2193 18.8154 16.6338 18.3114 16.6338ZM18.3114 9.57494H13.8958C13.4038 9.57494 12.9959 9.16043 12.9959 8.66058C12.9959 8.16073 13.4038 7.74622 13.8958 7.74622H18.3114C18.8034 7.74622 19.2113 8.16073 19.2113 8.66058C19.2113 9.16043 18.8154 9.57494 18.3114 9.57494Z" fill="#7F8083"/>
</svg>
