<svg width="20" height="21" viewBox="0 0 20 21" fill="none" xmlns="http://www.w3.org/2000/svg">
<path d="M18.8993 1.76734C18.7514 1.73217 18.5957 1.75115 18.4606 1.82086L17.5001 2.30055L16.5313 1.81617C16.4445 1.77278 16.3488 1.7502 16.2518 1.7502C16.1548 1.7502 16.0591 1.77278 15.9723 1.81617L14.9915 2.30094L14.0235 1.81617C13.9365 1.77247 13.8404 1.74971 13.743 1.74971C13.6456 1.74971 13.5496 1.77247 13.4626 1.81617L12.5001 2.29937L11.545 1.81734C11.4582 1.77334 11.3623 1.75021 11.265 1.7498C11.1677 1.7494 11.0716 1.77172 10.9844 1.815L10.0001 2.30133L9.0313 1.81578C8.94437 1.77241 8.84856 1.74984 8.75142 1.74984C8.65428 1.74984 8.55846 1.77241 8.47153 1.81578L7.50005 2.30055L6.52974 1.81578C6.40465 1.75308 6.26214 1.73416 6.12502 1.76207C5.98791 1.78997 5.86412 1.86308 5.77349 1.96969C5.6758 2.08612 5.62313 2.23373 5.62505 2.3857V11.7498L5.627 11.7517H13.1251C13.4566 11.7517 13.7745 11.8834 14.0089 12.1178C14.2434 12.3523 14.3751 12.6702 14.3751 13.0017V17.0623C14.3751 18.2705 15.6668 19.2498 16.8751 19.2498H17.3438C17.8825 19.2498 18.3992 19.0358 18.7801 18.6548C19.161 18.2739 19.3751 17.7572 19.3751 17.2185V2.37476C19.3752 2.23488 19.3283 2.099 19.2421 1.98887C19.1558 1.87874 19.0351 1.80074 18.8993 1.76734ZM16.2501 9.87476H11.2696C10.9321 9.87476 10.6407 9.61539 10.6258 9.27789C10.622 9.19354 10.6354 9.1093 10.665 9.03025C10.6947 8.9512 10.74 8.87897 10.7984 8.81793C10.8567 8.7569 10.9268 8.70831 11.0044 8.67511C11.0821 8.64191 11.1656 8.62478 11.2501 8.62476H16.2305C16.568 8.62476 16.8594 8.88414 16.8743 9.22164C16.8781 9.30598 16.8647 9.39023 16.8351 9.46928C16.8054 9.54833 16.7601 9.62056 16.7017 9.68159C16.6434 9.74263 16.5733 9.79122 16.4957 9.82442C16.418 9.85762 16.3345 9.87474 16.2501 9.87476ZM16.2501 6.74976H8.76958C8.43208 6.74976 8.14068 6.49039 8.12583 6.15289C8.12203 6.06854 8.13536 5.9843 8.16502 5.90525C8.19467 5.8262 8.24004 5.75397 8.29837 5.69293C8.35671 5.6319 8.42681 5.58331 8.50444 5.55011C8.58207 5.51691 8.66562 5.49978 8.75005 5.49976H16.2305C16.568 5.49976 16.8594 5.75914 16.8743 6.09664C16.8781 6.18098 16.8647 6.26523 16.8351 6.34428C16.8054 6.42333 16.7601 6.49556 16.7017 6.55659C16.6434 6.61763 16.5733 6.66622 16.4957 6.69942C16.418 6.73262 16.3345 6.74974 16.2501 6.74976Z" fill="white"/>
<path d="M13.125 17.0625V13.625C13.125 13.4592 13.0592 13.3003 12.9419 13.1831C12.8247 13.0658 12.6658 13 12.5 13H1.875C1.54346 13.001 1.22582 13.1333 0.991567 13.3679C0.757314 13.6026 0.625515 13.9204 0.625 14.252C0.625 16.2266 0.850781 17.0477 1.18984 17.6727C1.76523 18.734 2.80703 19.25 4.375 19.25H13.9719C14.0027 19.25 14.0328 19.2409 14.0585 19.2239C14.0842 19.2068 14.1042 19.1825 14.1161 19.1541C14.128 19.1256 14.1313 19.0943 14.1254 19.064C14.1195 19.0338 14.1049 19.0059 14.0832 18.984C13.7137 18.6133 13.125 18.1172 13.125 17.0625Z" fill="white"/>
</svg>
