<svg width="20" height="20" viewBox="0 0 20 20" fill="none" xmlns="http://www.w3.org/2000/svg">
<g clip-path="url(#clip0_501_1191)">
<path d="M17.0463 2.9539L19.1412 3.37265C19.2537 3.39515 19.3463 3.47765 19.3787 3.5889C19.3952 3.64294 19.3966 3.70042 19.383 3.75523C19.3693 3.81003 19.3411 3.86011 19.3013 3.90015L17.585 5.61765C17.3797 5.82261 17.1014 5.9377 16.8113 5.93765H15.3875L11.8125 9.5139C11.8807 9.77143 11.8932 10.0405 11.8493 10.3033C11.8053 10.566 11.7059 10.8164 11.5576 11.0377C11.4093 11.259 11.2155 11.4462 10.9892 11.5867C10.7629 11.7273 10.5092 11.818 10.2451 11.8528C9.98099 11.8877 9.71248 11.8658 9.45747 11.7887C9.20246 11.7116 8.96681 11.5811 8.7662 11.4058C8.5656 11.2305 8.40465 11.0145 8.29409 10.7721C8.18353 10.5297 8.12588 10.2666 8.125 10.0001C8.12519 9.71251 8.19151 9.42877 8.31883 9.17085C8.44615 8.91293 8.63107 8.68773 8.8593 8.51267C9.08752 8.3376 9.35295 8.21735 9.63505 8.16121C9.91715 8.10507 10.2084 8.11455 10.4862 8.1889L14.0625 4.6114V3.19015C14.0625 2.90015 14.1775 2.6214 14.3825 2.4164L16.1 0.698899C16.14 0.65906 16.1901 0.630816 16.2449 0.617169C16.2997 0.603523 16.3572 0.604984 16.4112 0.621399C16.5225 0.653899 16.605 0.746399 16.6275 0.858899L17.0463 2.9539Z" fill="white"/>
<path d="M2.49987 9.99999C2.50115 11.0724 2.73242 12.1321 3.17808 13.1076C3.62373 14.0831 4.27341 14.9516 5.08328 15.6547C5.89315 16.3577 6.84437 16.8789 7.87279 17.1831C8.90121 17.4872 9.98289 17.5673 11.0449 17.4179C12.1069 17.2684 13.1245 16.893 14.029 16.3168C14.9336 15.7407 15.704 14.9772 16.2885 14.078C16.8729 13.1788 17.2576 12.1647 17.4168 11.1041C17.576 10.0435 17.5058 8.96116 17.2111 7.92999C17.1697 7.80952 17.1533 7.68189 17.1628 7.55487C17.1724 7.42785 17.2076 7.30409 17.2665 7.19114C17.3254 7.07818 17.4066 6.97839 17.5053 6.89784C17.604 6.81729 17.718 6.75766 17.8405 6.72259C17.9629 6.68752 18.0913 6.67773 18.2176 6.69383C18.344 6.70993 18.4657 6.75158 18.5755 6.81624C18.6852 6.8809 18.7807 6.96721 18.856 7.06994C18.9313 7.17266 18.9849 7.28963 19.0136 7.41374C19.5843 9.41065 19.4759 11.5405 18.7054 13.4692C17.935 15.3978 16.5461 17.0161 14.7566 18.0703C12.9672 19.1244 10.8784 19.5546 8.81806 19.2935C6.75769 19.0324 4.84229 18.0947 3.37237 16.6275C1.90405 15.1579 0.965339 13.2424 0.703625 11.1815C0.44191 9.12067 0.872011 7.03126 1.9264 5.24133C2.98079 3.45141 4.59975 2.06232 6.52911 1.29217C8.45848 0.522017 10.589 0.414411 12.5861 0.986244C12.8239 1.05576 13.0245 1.21658 13.1441 1.43356C13.2637 1.65054 13.2926 1.90604 13.2243 2.14421C13.1561 2.38239 12.9964 2.58388 12.7801 2.70466C12.5638 2.82543 12.3084 2.85566 12.0699 2.78874C10.9531 2.46833 9.77716 2.4117 8.63477 2.62333C7.49237 2.83495 6.41475 3.30905 5.48686 4.00824C4.55897 4.70743 3.80617 5.6126 3.28782 6.65239C2.76947 7.69218 2.49973 8.83816 2.49987 9.99999Z" fill="white"/>
<path d="M6.25011 10.0002C6.25018 10.6834 6.43679 11.3537 6.78981 11.9386C7.14283 12.5236 7.64886 13.0011 8.25332 13.3196C8.85778 13.6381 9.53773 13.7855 10.2198 13.746C10.9019 13.7064 11.5603 13.4814 12.1239 13.0952C12.6874 12.708 13.1343 12.1741 13.4163 11.5512C13.6983 10.9284 13.8046 10.2403 13.7239 9.56141C13.702 9.39667 13.7245 9.22907 13.7889 9.07589C13.8534 8.9227 13.9575 8.78947 14.0905 8.68989C14.2236 8.59032 14.3808 8.52801 14.5459 8.50939C14.7111 8.49076 14.8782 8.51648 15.0301 8.58391C15.182 8.65047 15.3135 8.75611 15.4112 8.89006C15.5089 9.02401 15.5694 9.18148 15.5864 9.34642C15.7222 10.5065 15.4935 11.6802 14.932 12.7044C14.3705 13.7287 13.5041 14.5527 12.453 15.0622C11.402 15.5717 10.2183 15.7413 9.06648 15.5476C7.91461 15.3538 6.85163 14.8063 6.02506 13.981C5.1985 13.1557 4.64936 12.0935 4.45386 10.942C4.25837 9.79039 4.42621 8.60651 4.93409 7.55466C5.44198 6.50281 6.26471 5.63516 7.2881 5.07212C8.31149 4.50909 9.48478 4.27861 10.6451 4.41266C10.7694 4.42419 10.89 4.46041 11.0001 4.51918C11.1102 4.57796 11.2074 4.65812 11.2861 4.75496C11.3648 4.8518 11.4233 4.96337 11.4583 5.08314C11.4934 5.20291 11.5041 5.32846 11.49 5.45243C11.4758 5.5764 11.4371 5.6963 11.376 5.80511C11.3149 5.91391 11.2327 6.00942 11.1342 6.08605C11.0357 6.16268 10.923 6.21888 10.8025 6.25135C10.682 6.28382 10.5563 6.29192 10.4326 6.27516C9.90718 6.21416 9.37479 6.265 8.87041 6.42435C8.36602 6.5837 7.90105 6.84796 7.50604 7.19976C7.11104 7.55156 6.79492 7.98295 6.57846 8.46559C6.36201 8.94823 6.25011 9.47121 6.25011 10.0002Z" fill="white"/>
</g>
<defs>
<clipPath id="clip0_501_1191">
<rect width="20" height="20" fill="white"/>
</clipPath>
</defs>
</svg>
