   <svg width="20" height="21" viewBox="0 0 20 21" fill="none" xmlns="http://www.w3.org/2000/svg">
<path d="M7.96875 9.875H2.65625C2.28329 9.875 1.9256 9.72684 1.66188 9.46312C1.39816 9.1994 1.25 8.84171 1.25 8.46875V3.15625C1.25 2.78329 1.39816 2.4256 1.66188 2.16188C1.9256 1.89816 2.28329 1.75 2.65625 1.75H7.96875C8.34171 1.75 8.6994 1.89816 8.96312 2.16188C9.22684 2.4256 9.375 2.78329 9.375 3.15625V8.46875C9.375 8.84171 9.22684 9.1994 8.96312 9.46312C8.6994 9.72684 8.34171 9.875 7.96875 9.875ZM17.3438 9.875H12.0312C11.6583 9.875 11.3006 9.72684 11.0369 9.46312C10.7732 9.1994 10.625 8.84171 10.625 8.46875V3.15625C10.625 2.78329 10.7732 2.4256 11.0369 2.16188C11.3006 1.89816 11.6583 1.75 12.0312 1.75H17.3438C17.7167 1.75 18.0744 1.89816 18.3381 2.16188C18.6018 2.4256 18.75 2.78329 18.75 3.15625V8.46875C18.75 8.84171 18.6018 9.1994 18.3381 9.46312C18.0744 9.72684 17.7167 9.875 17.3438 9.875ZM7.96875 19.25H2.65625C2.28329 19.25 1.9256 19.1018 1.66188 18.8381C1.39816 18.5744 1.25 18.2167 1.25 17.8438V12.5312C1.25 12.1583 1.39816 11.8006 1.66188 11.5369C1.9256 11.2732 2.28329 11.125 2.65625 11.125H7.96875C8.34171 11.125 8.6994 11.2732 8.96312 11.5369C9.22684 11.8006 9.375 12.1583 9.375 12.5312V17.8438C9.375 18.2167 9.22684 18.5744 8.96312 18.8381C8.6994 19.1018 8.34171 19.25 7.96875 19.25ZM17.3438 19.25H12.0312C11.6583 19.25 11.3006 19.1018 11.0369 18.8381C10.7732 18.5744 10.625 18.2167 10.625 17.8438V12.5312C10.625 12.1583 10.7732 11.8006 11.0369 11.5369C11.3006 11.2732 11.6583 11.125 12.0312 11.125H17.3438C17.7167 11.125 18.0744 11.2732 18.3381 11.5369C18.6018 11.8006 18.75 12.1583 18.75 12.5312V17.8438C18.75 18.2167 18.6018 18.5744 18.3381 18.8381C18.0744 19.1018 17.7167 19.25 17.3438 19.25Z" fill="white"/>
</svg>