<svg width="20" height="20" viewBox="0 0 20 20" fill="none" xmlns="http://www.w3.org/2000/svg">
<path d="M17.0312 3.125H2.96875C2.51307 3.12552 2.0762 3.30676 1.75398 3.62898C1.43176 3.9512 1.25052 4.38807 1.25 4.84375V15.1562C1.25052 15.6119 1.43176 16.0488 1.75398 16.371C2.0762 16.6932 2.51307 16.8745 2.96875 16.875H17.0312C17.4869 16.8745 17.9238 16.6932 18.246 16.371C18.5682 16.0488 18.7495 15.6119 18.75 15.1562V4.84375C18.7495 4.38807 18.5682 3.9512 18.246 3.62898C17.9238 3.30676 17.4869 3.12552 17.0312 3.125ZM4.375 15.1562C4.375 15.2806 4.32561 15.3998 4.23771 15.4877C4.1498 15.5756 4.03057 15.625 3.90625 15.625H2.96875C2.84443 15.625 2.7252 15.5756 2.63729 15.4877C2.54939 15.3998 2.5 15.2806 2.5 15.1562V14.2188C2.5 14.0944 2.54939 13.9752 2.63729 13.8873C2.7252 13.7994 2.84443 13.75 2.96875 13.75H3.90625C4.03057 13.75 4.1498 13.7994 4.23771 13.8873C4.32561 13.9752 4.375 14.0944 4.375 14.2188V15.1562ZM4.375 12.0312C4.375 12.1556 4.32561 12.2748 4.23771 12.3627C4.1498 12.4506 4.03057 12.5 3.90625 12.5H2.96875C2.84443 12.5 2.7252 12.4506 2.63729 12.3627C2.54939 12.2748 2.5 12.1556 2.5 12.0312V11.0938C2.5 10.9694 2.54939 10.8502 2.63729 10.7623C2.7252 10.6744 2.84443 10.625 2.96875 10.625H3.90625C4.03057 10.625 4.1498 10.6744 4.23771 10.7623C4.32561 10.8502 4.375 10.9694 4.375 11.0938V12.0312ZM4.375 8.90625C4.375 9.03057 4.32561 9.1498 4.23771 9.23771C4.1498 9.32561 4.03057 9.375 3.90625 9.375H2.96875C2.84443 9.375 2.7252 9.32561 2.63729 9.23771C2.54939 9.1498 2.5 9.03057 2.5 8.90625V7.96875C2.5 7.84443 2.54939 7.7252 2.63729 7.63729C2.7252 7.54939 2.84443 7.5 2.96875 7.5H3.90625C4.03057 7.5 4.1498 7.54939 4.23771 7.63729C4.32561 7.7252 4.375 7.84443 4.375 7.96875V8.90625ZM4.375 5.78125C4.375 5.90557 4.32561 6.0248 4.23771 6.11271C4.1498 6.20061 4.03057 6.25 3.90625 6.25H2.96875C2.84443 6.25 2.7252 6.20061 2.63729 6.11271C2.54939 6.0248 2.5 5.90557 2.5 5.78125V4.84375C2.5 4.71943 2.54939 4.6002 2.63729 4.51229C2.7252 4.42439 2.84443 4.375 2.96875 4.375H3.90625C4.03057 4.375 4.1498 4.42439 4.23771 4.51229C4.32561 4.6002 4.375 4.71943 4.375 4.84375V5.78125ZM13.8156 10.625H6.18438C6.01861 10.625 5.85964 10.5592 5.74243 10.4419C5.62522 10.3247 5.55938 10.1658 5.55938 10C5.55938 9.83424 5.62522 9.67527 5.74243 9.55806C5.85964 9.44085 6.01861 9.375 6.18438 9.375H13.8156C13.9814 9.375 14.1404 9.44085 14.2576 9.55806C14.3748 9.67527 14.4406 9.83424 14.4406 10C14.4406 10.1658 14.3748 10.3247 14.2576 10.4419C14.1404 10.5592 13.9814 10.625 13.8156 10.625ZM17.5 15.1562C17.5 15.2806 17.4506 15.3998 17.3627 15.4877C17.2748 15.5756 17.1556 15.625 17.0312 15.625H16.0938C15.9694 15.625 15.8502 15.5756 15.7623 15.4877C15.6744 15.3998 15.625 15.2806 15.625 15.1562V14.2188C15.625 14.0944 15.6744 13.9752 15.7623 13.8873C15.8502 13.7994 15.9694 13.75 16.0938 13.75H17.0312C17.1556 13.75 17.2748 13.7994 17.3627 13.8873C17.4506 13.9752 17.5 14.0944 17.5 14.2188V15.1562ZM17.5 12.0312C17.5 12.1556 17.4506 12.2748 17.3627 12.3627C17.2748 12.4506 17.1556 12.5 17.0312 12.5H16.0938C15.9694 12.5 15.8502 12.4506 15.7623 12.3627C15.6744 12.2748 15.625 12.1556 15.625 12.0312V11.0938C15.625 10.9694 15.6744 10.8502 15.7623 10.7623C15.8502 10.6744 15.9694 10.625 16.0938 10.625H17.0312C17.1556 10.625 17.2748 10.6744 17.3627 10.7623C17.4506 10.8502 17.5 10.9694 17.5 11.0938V12.0312ZM17.5 8.90625C17.5 9.03057 17.4506 9.1498 17.3627 9.23771C17.2748 9.32561 17.1556 9.375 17.0312 9.375H16.0938C15.9694 9.375 15.8502 9.32561 15.7623 9.23771C15.6744 9.1498 15.625 9.03057 15.625 8.90625V7.96875C15.625 7.84443 15.6744 7.7252 15.7623 7.63729C15.8502 7.54939 15.9694 7.5 16.0938 7.5H17.0312C17.1556 7.5 17.2748 7.54939 17.3627 7.63729C17.4506 7.7252 17.5 7.84443 17.5 7.96875V8.90625ZM17.5 5.78125C17.5 5.90557 17.4506 6.0248 17.3627 6.11271C17.2748 6.20061 17.1556 6.25 17.0312 6.25H16.0938C15.9694 6.25 15.8502 6.20061 15.7623 6.11271C15.6744 6.0248 15.625 5.90557 15.625 5.78125V4.84375C15.625 4.71943 15.6744 4.6002 15.7623 4.51229C15.8502 4.42439 15.9694 4.375 16.0938 4.375H17.0312C17.1556 4.375 17.2748 4.42439 17.3627 4.51229C17.4506 4.6002 17.5 4.71943 17.5 4.84375V5.78125Z" fill="#7F8083"/>
</svg>
