<svg width="45" height="46" viewBox="0 0 45 46" fill="none" xmlns="http://www.w3.org/2000/svg">
<rect y="0.5" width="45" height="45" rx="22.5" fill="#5D5E60"/>
<path d="M30.8399 26.49L29.8399 24.83C29.6299 24.46 29.4399 23.76 29.4399 23.35V20.82C29.4399 18.47 28.0599 16.44 26.0699 15.49C25.5499 14.57 24.5899 14 23.4899 14C22.3999 14 21.4199 14.59 20.8999 15.52C18.9499 16.49 17.5999 18.5 17.5999 20.82V23.35C17.5999 23.76 17.4099 24.46 17.1999 24.82L16.1899 26.49C15.7899 27.16 15.6999 27.9 15.9499 28.58C16.1899 29.25 16.7599 29.77 17.4999 30.02C19.4399 30.68 21.4799 31 23.5199 31C25.5599 31 27.5999 30.68 29.5399 30.03C30.2399 29.8 30.7799 29.27 31.0399 28.58C31.2999 27.89 31.2299 27.13 30.8399 26.49Z" fill="white"/>
<path d="M26.3307 32.01C25.9107 33.17 24.8007 34 23.5007 34C22.7107 34 21.9307 33.68 21.3807 33.11C21.0607 32.81 20.8207 32.41 20.6807 32C20.8107 32.02 20.9407 32.03 21.0807 32.05C21.3107 32.08 21.5507 32.11 21.7907 32.13C22.3607 32.18 22.9407 32.21 23.5207 32.21C24.0907 32.21 24.6607 32.18 25.2207 32.13C25.4307 32.11 25.6407 32.1 25.8407 32.07C26.0007 32.05 26.1607 32.03 26.3307 32.01Z" fill="white"/>
<path d="M30.5 17C30.5 18.6569 29.1569 20 27.5 20C25.8431 20 24.5 18.6569 24.5 17C24.5 15.3431 25.8431 14 27.5 14C29.1569 14 30.5 15.3431 30.5 17Z" fill="#E73535" stroke="white"/>
</svg>
