<svg width="20" height="21" viewBox="0 0 20 21" fill="none" xmlns="http://www.w3.org/2000/svg">
<path d="M10 10.5C9.47383 10.5 8.94766 10.4066 8.5375 10.2199L2.75625 7.58359C2.4918 7.46328 1.875 7.11133 1.875 6.44688C1.875 5.78242 2.4918 5.43125 2.75703 5.30938L8.58828 2.65039C9.3918 2.2832 10.6043 2.2832 11.4082 2.65039L17.243 5.30938C17.5082 5.43008 18.125 5.78203 18.125 6.44688C18.125 7.11172 17.5082 7.4625 17.243 7.58398L11.4617 10.2199C11.0523 10.4066 10.5262 10.5 10 10.5Z" fill="white"/>
<path d="M17.2406 9.35977L16.6512 9.09375L15.1367 9.78672L11.4648 11.4664C11.0547 11.6539 10.5273 11.7473 10.0023 11.7473C9.47734 11.7473 8.95039 11.6539 8.54063 11.4664L4.86602 9.78672L3.35117 9.09375L2.75664 9.36094C2.4918 9.48164 1.875 9.83594 1.875 10.5C1.875 11.1641 2.4918 11.5188 2.75625 11.6395L8.5375 14.2812C8.94531 14.4687 9.47227 14.5625 10 14.5625C10.5277 14.5625 11.0523 14.4688 11.4625 14.2816L17.2387 11.6406C17.5047 11.5199 18.125 11.1676 18.125 10.5C18.125 9.83242 17.509 9.48164 17.2406 9.35977Z" fill="white"/>
<path d="M17.2406 13.4219L16.6512 13.1562L15.1367 13.8488L11.4648 15.5266C11.0547 15.7133 10.5273 15.807 10.0023 15.807C9.47734 15.807 8.95039 15.7137 8.54063 15.5266L4.86602 13.8469L3.35117 13.1562L2.75664 13.4234C2.4918 13.5441 1.875 13.8984 1.875 14.5625C1.875 15.2266 2.4918 15.5809 2.75625 15.7012L8.5375 18.3414C8.94531 18.5281 9.47422 18.625 10 18.625C10.5258 18.625 11.05 18.5281 11.4602 18.341L17.2383 15.7016C17.5047 15.5813 18.125 15.2289 18.125 14.5625C18.125 13.8961 17.509 13.5441 17.2406 13.4219Z" fill="white"/>
</svg>
