<svg width="20" height="20" viewBox="0 0 20 20" fill="none" xmlns="http://www.w3.org/2000/svg">
<path d="M12.8457 6.12451C12.6045 6.12465 12.3708 6.2084 12.1845 6.36152C11.9981 6.51463 11.8706 6.72763 11.8236 6.96422C11.7767 7.2008 11.8133 7.44635 11.9271 7.65901C12.0409 7.87167 12.2249 8.0383 12.4478 8.13049C12.6706 8.22269 12.9186 8.23476 13.1494 8.16464C13.3802 8.09452 13.5795 7.94655 13.7134 7.74595C13.8473 7.54534 13.9075 7.30451 13.8838 7.06448C13.8601 6.82445 13.7538 6.60008 13.5832 6.42959C13.4865 6.33264 13.3715 6.25578 13.2449 6.20342C13.1184 6.15106 12.9827 6.12425 12.8457 6.12451Z" fill="#7F8083"/>
<path d="M18.65 1.95538C18.6498 1.95422 18.6498 1.95303 18.65 1.95186C18.6169 1.80707 18.5441 1.67438 18.4397 1.56878C18.3352 1.46317 18.2034 1.38886 18.0589 1.35421C16.8949 1.07022 15.0636 1.37296 13.0343 2.18546C10.989 3.00577 9.07261 4.21671 7.7773 5.51436C7.36212 5.92734 6.97641 6.36892 6.623 6.83585C5.75074 6.79679 4.98238 6.92101 4.33511 7.20343C2.07964 8.19601 1.4355 10.7362 1.26402 11.7792C1.23921 11.9274 1.24892 12.0793 1.29241 12.2231C1.3359 12.367 1.41199 12.4988 1.51476 12.6084C1.61754 12.718 1.74421 12.8025 1.88494 12.8551C2.02567 12.9078 2.17665 12.9272 2.32613 12.912H2.33121L4.84371 12.6378C4.84683 12.6698 4.85035 12.6991 4.85308 12.7261C4.88535 13.0322 5.02189 13.318 5.2398 13.5355L6.46597 14.7624C6.6831 14.9806 6.96881 15.1173 7.27496 15.1495L7.35894 15.1585L7.0855 17.6679V17.673C7.07153 17.8081 7.08591 17.9447 7.12773 18.074C7.16954 18.2032 7.23787 18.3224 7.32835 18.4237C7.41883 18.5251 7.52946 18.6064 7.65318 18.6626C7.7769 18.7188 7.91097 18.7485 8.04683 18.7499C8.10114 18.75 8.15536 18.7455 8.20894 18.7366C9.25777 18.5679 11.7968 17.9316 12.7867 15.664C13.0668 15.021 13.1906 14.2558 13.1558 13.3851C13.6249 13.0324 14.068 12.6467 14.482 12.2308C15.7878 10.9316 17.0027 9.03077 17.8144 7.01515C18.6226 5.0089 18.9269 3.16397 18.65 1.95538ZM14.4679 8.78663C14.147 9.10793 13.7379 9.32681 13.2925 9.41559C12.8471 9.50436 12.3854 9.45904 11.9658 9.28535C11.5462 9.11167 11.1875 8.81742 10.9351 8.43984C10.6828 8.06226 10.5481 7.61832 10.5481 7.16417C10.5481 6.71002 10.6828 6.26607 10.9351 5.8885C11.1875 5.51092 11.5462 5.21667 11.9658 5.04299C12.3854 4.8693 12.8471 4.82398 13.2925 4.91275C13.7379 5.00153 14.147 5.22041 14.4679 5.54171C14.6831 5.75361 14.8539 6.00618 14.9705 6.28472C15.0871 6.56326 15.1472 6.86221 15.1472 7.16417C15.1472 7.46613 15.0871 7.76508 14.9705 8.04362C14.8539 8.32216 14.6831 8.57473 14.4679 8.78663Z" fill="#7F8083"/>
<path d="M6.32535 15.0951C6.1742 15.0763 6.0214 15.1134 5.89566 15.1994C5.64605 15.3701 5.39527 15.5388 5.14215 15.7033C4.63004 16.0361 4.01754 15.4517 4.32184 14.922L4.79645 14.1017C4.8643 14.0025 4.90208 13.8858 4.90526 13.7656C4.90844 13.6454 4.87689 13.5268 4.81438 13.4241C4.75187 13.3214 4.66106 13.2389 4.55285 13.1865C4.44463 13.1341 4.3236 13.114 4.20426 13.1287C3.6775 13.1953 3.18786 13.4352 2.81246 13.8107C2.66949 13.9541 2.23473 14.3892 2.00074 16.0474C1.93414 16.5237 1.89216 17.0031 1.87496 17.4838C1.87282 17.5672 1.88741 17.6502 1.91786 17.7279C1.94831 17.8056 1.99401 17.8764 2.05226 17.9361C2.11051 17.9958 2.18013 18.0433 2.25703 18.0757C2.33392 18.1081 2.41652 18.1248 2.49996 18.1248H2.51559C2.99658 18.1078 3.47637 18.066 3.95309 17.9998C5.61207 17.7654 6.04723 17.3303 6.1902 17.1873C6.56742 16.8117 6.80678 16.3198 6.86949 15.7912C6.88958 15.6267 6.84354 15.461 6.74151 15.3305C6.63947 15.2 6.48979 15.1153 6.32535 15.0951Z" fill="#7F8083"/>
</svg>
