<svg width="45" height="46" viewBox="0 0 45 46" fill="none" xmlns="http://www.w3.org/2000/svg">
<rect y="0.5" width="45" height="45" rx="22.5" fill="#5D5E60"/>
<path d="M12.5 23C12.5 28.523 16.977 33 22.5 33C28.023 33 32.5 28.523 32.5 23C32.5 17.477 28.023 13 22.5 13C16.977 13 12.5 17.477 12.5 23Z" stroke="white" stroke-width="1.5" stroke-linecap="round" stroke-linejoin="round"/>
<path d="M23.5 13.05C23.5 13.05 26.5 17 26.5 23C26.5 29 23.5 32.9501 23.5 32.9501M21.5 32.9501C21.5 32.9501 18.5 29 18.5 23C18.5 17 21.5 13.05 21.5 13.05M13.13 26.5H31.87M13.13 19.5H31.87" stroke="white" stroke-width="1.5" stroke-linecap="round" stroke-linejoin="round"/>
</svg>
