<svg width="50" height="50" viewBox="0 0 50 50" fill="none" xmlns="http://www.w3.org/2000/svg">
<rect width="50" height="50" rx="25" fill="#5D5E60"/>
<path d="M26.0305 14.8924C25.752 14.6291 25.3833 14.4824 25 14.4824C24.6167 14.4824 24.248 14.6291 23.9695 14.8924L16.7035 21.7594C16.481 21.97 16.3039 22.2237 16.1829 22.5051C16.0619 22.7865 15.9997 23.0896 16 23.3959V31.7509C16.0004 32.3474 16.2376 32.9193 16.6595 33.341C17.0815 33.7626 17.6535 33.9994 18.25 33.9994H20.5C21.0967 33.9994 21.669 33.7624 22.091 33.3404C22.5129 32.9185 22.75 32.3462 22.75 31.7494V27.9994C22.75 27.8005 22.829 27.6098 22.9697 27.4691C23.1103 27.3285 23.3011 27.2494 23.5 27.2494H26.5C26.6989 27.2494 26.8897 27.3285 27.0303 27.4691C27.171 27.6098 27.25 27.8005 27.25 27.9994V31.7494C27.25 32.3462 27.4871 32.9185 27.909 33.3404C28.331 33.7624 28.9033 33.9994 29.5 33.9994H31.75C32.3467 33.9994 32.919 33.7624 33.341 33.3404C33.7629 32.9185 34 32.3462 34 31.7494V23.3944C33.9999 23.0883 33.9373 22.7854 33.8161 22.5042C33.6949 22.2231 33.5176 21.9697 33.295 21.7594L26.0305 14.8924Z" fill="white"/>
</svg>
