<svg width="17" height="16" viewBox="0 0 17 16" fill="none" xmlns="http://www.w3.org/2000/svg">
<mask id="mask0_75_2565" style="mask-type:luminance" maskUnits="userSpaceOnUse" x="1" y="0" width="14" height="16">
<path d="M13.5833 7.3335H2.91667C2.54848 7.3335 2.25 7.63197 2.25 8.00016V14.0002C2.25 14.3684 2.54848 14.6668 2.91667 14.6668H13.5833C13.9515 14.6668 14.25 14.3684 14.25 14.0002V8.00016C14.25 7.63197 13.9515 7.3335 13.5833 7.3335Z" fill="white" stroke="white" stroke-width="1.5" stroke-linejoin="round"/>
<path d="M4.91666 7.3335V4.66683C4.91666 2.82583 6.40899 1.3335 8.24999 1.3335C10.091 1.3335 11.5833 2.82583 11.5833 4.66683V7.3335" stroke="white" stroke-width="1.5" stroke-linecap="round" stroke-linejoin="round"/>
<path d="M8.25 10V12" stroke="black" stroke-width="1.5" stroke-linecap="round" stroke-linejoin="round"/>
</mask>
<g mask="url(#mask0_75_2565)">
<path d="M0.25 0H16.25V16H0.25V0Z" fill="white"/>
</g>
</svg>
