<svg width="50" height="50" viewBox="0 0 50 50" fill="none" xmlns="http://www.w3.org/2000/svg">
<rect width="50" height="50" rx="25" fill="#5D5E60"/>
<path d="M35.3596 21.27L35.0696 18.5C34.6496 15.48 33.2796 14.25 30.3497 14.25H27.9896H26.5097H23.4697H21.9896H19.5897C16.6497 14.25 15.2896 15.48 14.8596 18.53L14.5896 21.28C14.4896 22.35 14.7797 23.39 15.4097 24.2C16.1697 25.19 17.3396 25.75 18.6396 25.75C19.8996 25.75 21.1096 25.12 21.8696 24.11C22.5496 25.12 23.7097 25.75 24.9997 25.75C26.2896 25.75 27.4197 25.15 28.1096 24.15C28.8797 25.14 30.0696 25.75 31.3096 25.75C32.6396 25.75 33.8396 25.16 34.5896 24.12C35.1896 23.32 35.4597 22.31 35.3596 21.27Z" fill="white"/>
<path d="M24.3501 29.6602C23.0801 29.7902 22.1201 30.8702 22.1201 32.1502V34.8902C22.1201 35.1602 22.3401 35.3802 22.6101 35.3802H27.3801C27.6501 35.3802 27.8701 35.1602 27.8701 34.8902V32.5002C27.8801 30.4102 26.6501 29.4202 24.3501 29.6602Z" fill="white"/>
<path d="M34.37 27.4001V30.3801C34.37 33.1401 32.13 35.3801 29.37 35.3801C29.1 35.3801 28.88 35.1601 28.88 34.8901V32.5001C28.88 31.2201 28.49 30.2201 27.73 29.5401C27.06 28.9301 26.15 28.6301 25.02 28.6301C24.77 28.6301 24.52 28.6401 24.25 28.6701C22.47 28.8501 21.12 30.3501 21.12 32.1501V34.8901C21.12 35.1601 20.9 35.3801 20.63 35.3801C17.87 35.3801 15.63 33.1401 15.63 30.3801V27.4201C15.63 26.7201 16.32 26.2501 16.97 26.4801C17.24 26.5701 17.51 26.6401 17.79 26.6801C17.91 26.7001 18.04 26.7201 18.16 26.7201C18.32 26.7401 18.48 26.7501 18.64 26.7501C19.8 26.7501 20.94 26.3201 21.84 25.5801C22.7 26.3201 23.82 26.7501 25 26.7501C26.19 26.7501 27.29 26.3401 28.15 25.6001C29.05 26.3301 30.17 26.7501 31.31 26.7501C31.49 26.7501 31.67 26.7401 31.84 26.7201C31.96 26.7101 32.07 26.7001 32.18 26.6801C32.49 26.6401 32.77 26.5501 33.05 26.4601C33.7 26.2401 34.37 26.7201 34.37 27.4001Z" fill="white"/>
</svg>
