<svg width="50" height="50" viewBox="0 0 50 50" fill="none" xmlns="http://www.w3.org/2000/svg">
<rect width="50" height="50" rx="25" fill="#5D5E60"/>
<path d="M29.19 15H20.81C17.17 15 15 17.17 15 20.81V29.18C15 32.83 17.17 35 20.81 35H29.18C32.82 35 34.99 32.83 34.99 29.19V20.81C35 17.17 32.83 15 29.19 15ZM22.91 29.19C22.91 29.83 22.39 30.35 21.74 30.35C21.1 30.35 20.58 29.83 20.58 29.19V25.93C20.58 25.29 21.1 24.77 21.74 24.77C22.39 24.77 22.91 25.29 22.91 25.93V29.19ZM29.42 29.19C29.42 29.83 28.9 30.35 28.26 30.35C27.61 30.35 27.09 29.83 27.09 29.19V20.81C27.09 20.17 27.61 19.65 28.26 19.65C28.9 19.65 29.42 20.17 29.42 20.81V29.19Z" fill="white"/>
</svg>
