<svg width="50" height="50" viewBox="0 0 50 50" fill="none" xmlns="http://www.w3.org/2000/svg">
<rect width="50" height="50" rx="25" fill="#5D5E60"/>
<path d="M24.94 15.2098L22.53 20.8198H20.12C19.72 20.8198 19.33 20.8498 18.95 20.9298L19.95 18.5298L19.99 18.4398L20.05 18.2798C20.08 18.2098 20.1 18.1498 20.13 18.0998C21.29 15.4098 22.59 14.5698 24.94 15.2098Z" fill="white"/>
<path d="M31.7301 21.0895L31.7101 21.0795C31.1101 20.9095 30.5001 20.8195 29.8801 20.8195H23.6201L25.8701 15.5895L25.9001 15.5195C26.0401 15.5695 26.1901 15.6395 26.3401 15.6895L28.5501 16.6195C29.7801 17.1295 30.6401 17.6595 31.1701 18.2995C31.2601 18.4195 31.3401 18.5295 31.4201 18.6595C31.5101 18.7995 31.5801 18.9395 31.6201 19.0895C31.6601 19.1795 31.6901 19.2595 31.7101 19.3495C31.8601 19.8595 31.8701 20.4395 31.7301 21.0895Z" fill="white"/>
<path d="M25.5195 30.6601H25.7695C26.0695 30.6601 26.3195 30.3901 26.3195 30.0601C26.3195 29.6401 26.1995 29.5801 25.9395 29.4801L25.5195 29.3301V30.6601Z" fill="white"/>
<path d="M31.2902 22.5203C30.8402 22.3903 30.3702 22.3203 29.8802 22.3203H20.1202C19.4402 22.3203 18.8002 22.4503 18.2002 22.7103C16.4602 23.4603 15.2402 25.1903 15.2402 27.2003V29.1503C15.2402 29.3903 15.2602 29.6203 15.2902 29.8603C15.5102 33.0403 17.2102 34.7403 20.3902 34.9503C20.6202 34.9803 20.8502 35.0003 21.1002 35.0003H28.9002C32.6002 35.0003 34.5502 33.2403 34.7402 29.7403C34.7502 29.5503 34.7602 29.3503 34.7602 29.1503V27.2003C34.7602 24.9903 33.2902 23.1303 31.2902 22.5203ZM26.2802 28.5003C26.7402 28.6603 27.3602 29.0003 27.3602 30.0603C27.3602 30.9703 26.6502 31.7003 25.7702 31.7003H25.5202V31.9203C25.5202 32.2103 25.2902 32.4403 25.0002 32.4403C24.7102 32.4403 24.4802 32.2103 24.4802 31.9203V31.7003H24.3902C23.4302 31.7003 22.6402 30.8903 22.6402 29.8903C22.6402 29.6003 22.8702 29.3703 23.1602 29.3703C23.4502 29.3703 23.6802 29.6003 23.6802 29.8903C23.6802 30.3103 24.0002 30.6603 24.3902 30.6603H24.4802V28.9703L23.7202 28.7003C23.2602 28.5403 22.6402 28.2003 22.6402 27.1403C22.6402 26.2303 23.3502 25.5003 24.2302 25.5003H24.4802V25.2803C24.4802 24.9903 24.7102 24.7603 25.0002 24.7603C25.2902 24.7603 25.5202 24.9903 25.5202 25.2803V25.5003H25.6102C26.5702 25.5003 27.3602 26.3103 27.3602 27.3103C27.3602 27.6003 27.1302 27.8303 26.8402 27.8303C26.5502 27.8303 26.3202 27.6003 26.3202 27.3103C26.3202 26.8903 26.0002 26.5403 25.6102 26.5403H25.5202V28.2303L26.2802 28.5003Z" fill="white"/>
<path d="M23.6797 27.1391C23.6797 27.5591 23.7997 27.6191 24.0597 27.7191L24.4797 27.8691V26.5391H24.2297C23.9197 26.5391 23.6797 26.8091 23.6797 27.1391Z" fill="white"/>
</svg>
