<svg width="50" height="50" viewBox="0 0 50 50" fill="none" xmlns="http://www.w3.org/2000/svg">
<rect width="50" height="50" rx="25" fill="#5D5E60"/>
<path d="M33.1004 19.94C33.1004 20.48 32.8104 20.97 32.3504 21.22L30.6104 22.16L29.1304 22.95L26.0604 24.61C25.7304 24.79 25.3704 24.88 25.0004 24.88C24.6304 24.88 24.2704 24.79 23.9404 24.61L17.6504 21.22C17.1904 20.97 16.9004 20.48 16.9004 19.94C16.9004 19.4 17.1904 18.91 17.6504 18.66L19.6204 17.6L21.1904 16.75L23.9404 15.27C24.6004 14.91 25.4004 14.91 26.0604 15.27L32.3504 18.66C32.8104 18.91 33.1004 19.4 33.1004 19.94Z" fill="white"/>
<path d="M22.8997 25.7901L17.0497 22.8701C16.5997 22.6401 16.0797 22.6701 15.6497 22.9301C15.2197 23.1901 14.9697 23.6501 14.9697 24.1501V29.6801C14.9697 30.6401 15.4997 31.5001 16.3597 31.9301L22.2097 34.8501C22.4097 34.9501 22.6297 35.0001 22.8497 35.0001C23.1097 35.0001 23.3697 34.9301 23.5997 34.7801C24.0297 34.5201 24.2797 34.0601 24.2797 33.5601V28.0301C24.2897 27.0801 23.7597 26.2201 22.8997 25.7901Z" fill="white"/>
<path d="M35.03 24.1496V29.6796C35.03 30.6296 34.5 31.4896 33.64 31.9196L27.79 34.8496C27.59 34.9496 27.37 34.9996 27.15 34.9996C26.89 34.9996 26.63 34.9296 26.39 34.7796C25.97 34.5196 25.71 34.0596 25.71 33.5596V28.0396C25.71 27.0796 26.24 26.2196 27.1 25.7896L29.25 24.7196L30.75 23.9696L32.95 22.8696C33.4 22.6396 33.92 22.6596 34.35 22.9296C34.77 23.1896 35.03 23.6496 35.03 24.1496Z" fill="white"/>
<path d="M30.61 22.16L29.13 22.95L19.62 17.6L21.19 16.75L30.37 21.93C30.47 21.99 30.55 22.07 30.61 22.16Z" fill="white"/>
<path d="M30.75 23.9707V26.2407C30.75 26.6507 30.41 26.9907 30 26.9907C29.59 26.9907 29.25 26.6507 29.25 26.2407V24.7207L30.75 23.9707Z" fill="white"/>
</svg>
