<svg width="46" height="45" viewBox="0 0 46 45" fill="none" xmlns="http://www.w3.org/2000/svg">
<rect x="0.5" width="45" height="45" rx="22.5" fill="#323233"/>
<path d="M27 14.75C27 15.99 25.99 17 24.75 17H21.25C20.63 17 20.07 16.75 19.66 16.34C19.25 15.93 19 15.37 19 14.75C19 13.51 20.01 12.5 21.25 12.5H24.75C25.37 12.5 25.93 12.75 26.34 13.16C26.75 13.57 27 14.13 27 14.75Z" fill="white"/>
<path d="M29.83 15.5302C29.6 15.3402 29.34 15.1902 29.06 15.0802C28.77 14.9702 28.48 15.2002 28.42 15.5002C28.08 17.2102 26.57 18.5002 24.75 18.5002H21.25C20.25 18.5002 19.31 18.1102 18.6 17.4002C18.08 16.8802 17.72 16.2202 17.58 15.5102C17.52 15.2102 17.22 14.9702 16.93 15.0902C15.77 15.5602 15 16.6202 15 18.7502V28.5002C15 31.5002 16.79 32.5002 19 32.5002H27C29.21 32.5002 31 31.5002 31 28.5002V18.7502C31 17.1202 30.55 16.1202 29.83 15.5302ZM19 22.7502H23C23.41 22.7502 23.75 23.0902 23.75 23.5002C23.75 23.9102 23.41 24.2502 23 24.2502H19C18.59 24.2502 18.25 23.9102 18.25 23.5002C18.25 23.0902 18.59 22.7502 19 22.7502ZM27 28.2502H19C18.59 28.2502 18.25 27.9102 18.25 27.5002C18.25 27.0902 18.59 26.7502 19 26.7502H27C27.41 26.7502 27.75 27.0902 27.75 27.5002C27.75 27.9102 27.41 28.2502 27 28.2502Z" fill="white"/>
</svg>
