<svg width="80" height="89" viewBox="0 0 80 89" fill="none" xmlns="http://www.w3.org/2000/svg">
<path d="M41.8436 1.27575C41.8438 1.2405 41.8371 1.20555 41.8239 1.17289C41.8106 1.14023 41.7911 1.1105 41.7663 1.0854C41.7416 1.06031 41.7121 1.04033 41.6796 1.02661C41.6472 1.0129 41.6123 1.00571 41.5771 1.00547L41.0734 1.00196C41.0381 1.00171 41.0032 1.0084 40.9705 1.02166C40.9379 1.03492 40.9081 1.05449 40.883 1.07924C40.8579 1.10399 40.838 1.13344 40.8242 1.16591C40.8105 1.19838 40.8033 1.23323 40.8031 1.26848L40.7853 3.81182C40.7851 3.84707 40.7918 3.88202 40.8051 3.91468C40.8183 3.94734 40.8379 3.97707 40.8626 4.00217C40.8874 4.02727 40.9168 4.04724 40.9493 4.06096C40.9818 4.07467 41.0166 4.08186 41.0519 4.0821L41.5556 4.08561C41.5908 4.08586 41.6258 4.07916 41.6584 4.06591C41.6911 4.05265 41.7208 4.03308 41.7459 4.00833C41.771 3.98358 41.791 3.95413 41.8047 3.92166C41.8184 3.88919 41.8256 3.85434 41.8258 3.81909L41.8436 1.27575Z" stroke="#BABCC8" stroke-width="2"/>
<path d="M35.492 5.97852C35.5491 5.9372 35.5816 5.86297 35.5875 5.76008C35.5934 5.65718 35.5727 5.52763 35.5265 5.37883C35.4803 5.23003 35.4096 5.06489 35.3184 4.89284C35.2271 4.72078 35.1172 4.54519 34.9947 4.37608C34.8723 4.20698 34.7399 4.04768 34.6049 3.90727C34.47 3.76686 34.3352 3.64809 34.2083 3.55774C34.0814 3.46739 33.9648 3.40724 33.8652 3.38071C33.7656 3.35419 33.6849 3.36181 33.6278 3.40314C33.5707 3.44446 33.5383 3.51869 33.5324 3.62159C33.5264 3.72448 33.5472 3.85403 33.5933 4.00283C33.6395 4.15163 33.7103 4.31677 33.8015 4.48883C33.8927 4.66088 34.0027 4.83647 34.1251 5.00558C34.2475 5.17468 34.38 5.33398 34.5149 5.47439C34.6499 5.61481 34.7846 5.73357 34.9116 5.82392C35.0385 5.91427 35.1551 5.97442 35.2547 6.00095C35.3543 6.02747 35.4349 6.01985 35.492 5.97852Z" stroke="#BABCC8" stroke-width="2"/>
<path d="M47.103 6.01338C47.2184 6.09851 47.4319 6.04079 47.6964 5.85293C47.961 5.66507 48.2549 5.36246 48.5135 5.01166C48.6416 4.83796 48.7571 4.65766 48.8535 4.48105C48.95 4.30444 49.0254 4.13498 49.0755 3.98235C49.1257 3.82972 49.1495 3.6969 49.1457 3.59149C49.1419 3.48608 49.1105 3.41013 49.0533 3.36798C48.9378 3.28286 48.7244 3.34057 48.4598 3.52843C48.1953 3.71629 47.9014 4.0189 47.6428 4.3697C47.5147 4.5434 47.3992 4.7237 47.3027 4.90031C47.2063 5.07692 47.1309 5.24638 47.0807 5.39901C47.0306 5.55164 47.0068 5.68446 47.0106 5.78987C47.0144 5.89529 47.0458 5.97123 47.103 6.01338Z" stroke="#BABCC8" stroke-width="2"/>
<path d="M48.2223 9.49662C45.2577 4.64925 37.7101 4.79376 34.6092 9.11262C31.9708 12.7915 32.5448 17.8783 36.1658 20.6365C36.5746 20.9461 36.8884 21.3755 36.8265 21.9164C36.6737 23.2872 36.9049 24.9058 37.9619 25.8307C39.2061 26.9179 40.5081 27.2896 41.8679 26.9455C44.07 26.3839 45.1531 24.9526 45.1174 22.6514C45.1118 22.3183 45.1311 21.9921 45.1752 21.6728C45.1917 21.549 45.2522 21.454 45.3568 21.3879C46.9781 20.3585 48.0998 19.2037 48.7219 17.9238C50.0955 15.0913 49.9289 12.2823 48.2223 9.49662Z" stroke="#BABCC8" stroke-width="2"/>
<path d="M32.0877 10.7233C32.0979 10.6935 32.1021 10.662 32.1002 10.6306C32.0982 10.5993 32.0901 10.5686 32.0762 10.5403C32.0624 10.5121 32.0431 10.4868 32.0195 10.4661C31.9959 10.4453 31.9685 10.4293 31.9387 10.4191L29.2434 9.49631C29.2136 9.48612 29.1821 9.4819 29.1507 9.48387C29.1194 9.48585 29.0887 9.49399 29.0604 9.50782C29.0322 9.52166 29.0069 9.54092 28.9861 9.56452C28.9654 9.58811 28.9494 9.61557 28.9392 9.64532L28.7654 10.1531C28.7552 10.1829 28.7509 10.2144 28.7529 10.2457C28.7549 10.2771 28.763 10.3078 28.7769 10.3361C28.7907 10.3643 28.81 10.3895 28.8336 10.4103C28.8572 10.4311 28.8846 10.4471 28.9144 10.4573L31.6097 11.3801C31.6395 11.3903 31.671 11.3945 31.7023 11.3925C31.7337 11.3906 31.7644 11.3824 31.7927 11.3686C31.8209 11.3547 31.8461 11.3355 31.8669 11.3119C31.8877 11.2883 31.9037 11.2608 31.9139 11.2311L32.0877 10.7233Z" stroke="#BABCC8" stroke-width="2"/>
<path d="M53.6783 9.88823C53.6352 9.77107 53.5473 9.67584 53.434 9.62348C53.3207 9.57112 53.1912 9.56592 53.0741 9.60903L50.7491 10.4645C50.6319 10.5076 50.5367 10.5955 50.4843 10.7088C50.432 10.8221 50.4268 10.9516 50.4699 11.0687L50.5041 11.1618C50.5472 11.2789 50.6351 11.3741 50.7484 11.4265C50.8617 11.4789 50.9912 11.4841 51.1084 11.441L53.4334 10.5855C53.5505 10.5424 53.6457 10.4545 53.6981 10.3412C53.7505 10.2279 53.7557 10.0984 53.7126 9.98125L53.6783 9.88823Z" stroke="#BABCC8" stroke-width="2"/>
<path d="M31.5582 17.6392C31.6202 17.6202 31.675 17.5828 31.7151 17.5318L32 17.1767C32.0404 17.1246 32.0636 17.0613 32.0663 16.9954C32.0691 16.9296 32.0514 16.8645 32.0156 16.8092C31.9797 16.7539 31.9276 16.711 31.8664 16.6866C31.8052 16.6623 31.7379 16.6575 31.6738 16.673L29.1799 17.313C29.1297 17.3263 29.0835 17.3517 29.0453 17.3869C29.0072 17.4222 28.9783 17.4663 28.9611 17.5153L28.8166 17.9282C28.7973 17.9836 28.7938 18.0432 28.8063 18.1005C28.8188 18.1578 28.8469 18.2105 28.8875 18.2528C28.9281 18.2951 28.9796 18.3253 29.0363 18.3402C29.093 18.355 29.1527 18.3539 29.2088 18.337L31.5582 17.6392Z" stroke="#BABCC8" stroke-width="2"/>
<path d="M53.7362 18.0477C53.7543 17.9898 53.7609 17.9288 53.7555 17.8683C53.7501 17.8079 53.7329 17.749 53.7047 17.6952C53.6766 17.6414 53.6381 17.5936 53.5916 17.5547C53.545 17.5157 53.4912 17.4863 53.4332 17.4682L51.0298 16.715C50.9128 16.6783 50.786 16.6897 50.6773 16.7465C50.5686 16.8033 50.4869 16.901 50.4503 17.018L50.4379 17.0574C50.4198 17.1153 50.4132 17.1763 50.4186 17.2368C50.424 17.2973 50.4412 17.3561 50.4694 17.4099C50.4975 17.4637 50.536 17.5115 50.5826 17.5504C50.6291 17.5894 50.6829 17.6188 50.7409 17.637L53.1443 18.3901C53.2613 18.4268 53.3881 18.4155 53.4968 18.3586C53.6055 18.3018 53.6872 18.2042 53.7238 18.0871L53.7362 18.0477Z" stroke="#BABCC8" stroke-width="2"/>
<path d="M44.1221 27.3132C44.3285 26.7984 44.2074 26.7048 43.7587 27.0324C43.3789 27.3132 42.9632 27.5705 42.5118 27.8045C40.8726 28.6633 39.3449 27.854 37.9658 27.0035C37.7263 26.8576 37.6465 26.9195 37.7263 27.1893C37.9906 28.0853 38.3622 30.0176 39.3573 30.3108C40.4267 30.6287 42.6191 30.7526 43.2137 29.4519C43.5192 28.7831 43.822 28.0701 44.1221 27.3132Z" stroke="#BABCC8" stroke-width="2"/>
<path d="M63.0491 48.8577C64.5851 47.2144 66.0784 45.5656 67.529 43.9113C67.7409 43.6663 67.902 43.4392 68.0121 43.23C68.0518 43.1534 68.0756 43.0695 68.0818 42.9835C68.0881 42.8975 68.0768 42.8113 68.0485 42.73C68.0203 42.6488 67.9757 42.5743 67.9176 42.5112C67.8595 42.448 67.7891 42.3976 67.7107 42.3629C61.0906 39.3874 54.5325 36.4462 48.0363 33.5394C47.4665 33.2862 46.8733 33.0591 46.2567 32.8581C46.1227 32.8146 45.9795 32.8089 45.8431 32.8417C45.7067 32.8745 45.5826 32.9445 45.4846 33.0439L40.4473 38.1349C40.4127 38.1704 40.3709 38.1982 40.3248 38.2163C40.2786 38.2345 40.2291 38.2427 40.1796 38.2404C40.13 38.238 40.0815 38.2252 40.0373 38.2028C39.9931 38.1803 39.9541 38.1487 39.923 38.1101C38.4888 36.3127 36.99 34.4849 35.4266 32.6269C35.1348 32.2801 34.8471 31.9883 34.5636 31.7516C34.4772 31.6788 34.3718 31.6324 34.2598 31.6178C34.1479 31.6031 34.0341 31.6209 33.9319 31.669L12.8496 41.566C12.5578 41.7037 12.4078 41.9335 12.3995 42.2556C12.3885 42.6795 12.5344 43.0938 12.8372 43.4984C14.2548 45.3867 15.6572 47.2351 17.0446 49.0435C17.1326 49.1564 17.1285 49.2665 17.0322 49.3739C15.6834 50.9263 14.3263 52.4458 12.961 53.9322C12.6665 54.2543 12.4532 54.6121 12.3211 55.0057C12.2929 55.0894 12.2842 55.1784 12.2956 55.2657C12.3071 55.353 12.3384 55.4364 12.3871 55.5094C12.5991 55.8315 12.884 56.0861 13.2418 56.2733C14.4695 56.9147 15.6944 57.5079 16.9166 58.0529C17.0776 58.1241 17.2145 58.2409 17.3105 58.389C17.4065 58.5371 17.4576 58.7101 17.4574 58.8869C17.463 63.8196 17.4533 68.0531 17.4285 71.5875C17.4162 72.9294 18.2543 73.1482 19.2866 73.6066C26.336 76.7198 32.9974 79.6375 39.2706 82.3599C39.8514 82.6131 40.4294 82.6131 41.0047 82.3599C47.4101 79.5577 54.1705 76.5876 61.286 73.4497C62.4036 72.9569 62.9596 72.0568 62.9541 70.7493C62.9404 66.8076 62.9376 62.7654 62.9459 58.6227C62.9459 58.4904 62.9831 58.3608 63.0533 58.2491C63.1234 58.1373 63.2236 58.0478 63.3423 57.9909C64.5314 57.4129 66.9386 56.5541 67.723 55.4434C67.7856 55.3553 67.8265 55.2536 67.8423 55.1467C67.858 55.0398 67.8483 54.9306 67.8139 54.8282C67.7038 54.5034 67.5317 54.2116 67.2978 53.9528C65.8334 52.3371 64.4158 50.7749 63.045 49.2665C62.9211 49.1289 62.9225 48.9926 63.0491 48.8577Z" stroke="#BABCC8" stroke-width="2"/>
<path d="M78.5906 84.1685C78.5906 84.094 78.561 84.0226 78.5083 83.9699C78.4557 83.9173 78.3843 83.8877 78.3098 83.8877H1.76771C1.69324 83.8877 1.62183 83.9173 1.56917 83.9699C1.51652 84.0226 1.48694 84.094 1.48694 84.1685V84.2676C1.48694 84.342 1.51652 84.4134 1.56917 84.4661C1.62183 84.5187 1.69324 84.5483 1.76771 84.5483H78.3098C78.3843 84.5483 78.4557 84.5187 78.5083 84.4661C78.561 84.4134 78.5906 84.342 78.5906 84.2676V84.1685Z" stroke="#A2ADBB" stroke-width="2"/>
<path d="M48.4083 87.517C48.4083 87.46 48.3856 87.4054 48.3454 87.3651C48.3051 87.3249 48.2505 87.3022 48.1936 87.3022H14.7079C14.651 87.3022 14.5964 87.3249 14.5561 87.3651C14.5158 87.4054 14.4932 87.46 14.4932 87.517V87.7151C14.4932 87.7721 14.5158 87.8267 14.5561 87.867C14.5964 87.9072 14.651 87.9298 14.7079 87.9298H48.1936C48.2505 87.9298 48.3051 87.9072 48.3454 87.867C48.3856 87.8267 48.4083 87.7721 48.4083 87.7151V87.517Z" stroke="#A2ADBB" stroke-width="2"/>
<path d="M70.9757 87.3601C70.9757 87.3455 70.9728 87.331 70.9671 87.3175C70.9615 87.304 70.9532 87.2917 70.9428 87.2814C70.9324 87.2711 70.9201 87.2629 70.9066 87.2574C70.893 87.2518 70.8785 87.249 70.8639 87.249L52.1764 87.3143C52.1469 87.3144 52.1186 87.3262 52.0977 87.3472C52.0769 87.3682 52.0653 87.3966 52.0654 87.4261L52.067 87.8885C52.067 87.9032 52.07 87.9177 52.0756 87.9312C52.0813 87.9447 52.0895 87.957 52.0999 87.9673C52.1103 87.9776 52.1226 87.9858 52.1361 87.9913C52.1497 87.9969 52.1642 87.9997 52.1788 87.9997L70.8663 87.9344C70.8958 87.9343 70.9242 87.9225 70.945 87.9015C70.9658 87.8805 70.9775 87.8521 70.9774 87.8226L70.9757 87.3601Z" stroke="#A2ADBB" stroke-width="2"/>
<path d="M44.2421 20.8598C45.1835 20.1909 46.3726 19.6005 47.0126 18.6508C48.1715 16.9249 48.711 15.338 48.6312 13.8902C48.243 6.9453 39.5516 4.24498 35.431 9.87271C33.0032 13.1924 33.7959 17.9365 37.2477 20.067C38.4534 20.8102 37.5326 22.949 38.1767 24.196C39.2379 26.2398 41.7978 26.7064 43.3833 24.8483C44.2091 23.8822 44.1678 22.6105 44.0068 21.3924C43.9792 21.1695 44.0577 20.9919 44.2421 20.8598Z" stroke="#BABCC8" stroke-width="2"/>
<path d="M38.0919 13.8587C38.3643 13.9921 38.681 14.0068 38.9724 13.8995C39.2638 13.7922 39.506 13.5717 39.6457 13.2865C39.7854 13.0013 39.8112 12.6748 39.7174 12.3788C39.6235 12.0828 39.4178 11.8415 39.1454 11.7081C38.873 11.5746 38.5563 11.56 38.2649 11.6673C37.9735 11.7746 37.7313 11.995 37.5916 12.2802C37.4519 12.5654 37.4261 12.8919 37.5199 13.1879C37.6137 13.484 37.8195 13.7252 38.0919 13.8587Z" stroke="#BABCC8" stroke-width="2"/>
<path d="M45.1833 12.7749C45.1833 12.4628 45.0593 12.1635 44.8386 11.9428C44.6179 11.7221 44.3186 11.5981 44.0065 11.5981C43.6944 11.5981 43.3951 11.7221 43.1744 11.9428C42.9537 12.1635 42.8298 12.4628 42.8298 12.7749C42.8298 12.9294 42.8602 13.0824 42.9193 13.2252C42.9785 13.368 43.0652 13.4977 43.1744 13.607C43.2837 13.7162 43.4134 13.8029 43.5562 13.8621C43.699 13.9212 43.852 13.9516 44.0065 13.9516C44.161 13.9516 44.3141 13.9212 44.4568 13.8621C44.5996 13.8029 44.7293 13.7162 44.8386 13.607C44.9479 13.4977 45.0345 13.368 45.0937 13.2252C45.1528 13.0824 45.1833 12.9294 45.1833 12.7749Z" stroke="#BABCC8" stroke-width="2"/>
<path d="M43.4578 16.9494C41.6493 15.7231 39.1967 15.8552 38.1727 17.899C38.1557 17.9332 38.146 17.9706 38.1441 18.0087C38.1423 18.0468 38.1483 18.0849 38.1619 18.1206C38.1755 18.1563 38.1963 18.1888 38.223 18.216C38.2497 18.2433 38.2818 18.2647 38.3173 18.2789C38.6476 18.411 39.0563 18.3615 39.3041 18.0972C40.1629 17.1847 41.5378 16.7264 42.6031 17.6472C43.0408 18.0243 43.4743 18.2321 43.9037 18.2707C44.3744 18.3092 44.4817 18.1289 44.2258 17.7298C44.0303 17.4242 43.7743 17.1641 43.4578 16.9494Z" stroke="#BABCC8" stroke-width="2"/>
<path d="M38.8993 39.1382C38.9379 39.1205 38.9721 39.0942 38.9991 39.0613C39.0261 39.0285 39.0453 38.9899 39.0553 38.9486C39.0652 38.9072 39.0656 38.8642 39.0565 38.8226C39.0473 38.7811 39.0289 38.7421 39.0025 38.7088L34.3038 32.8663C34.2641 32.8162 34.2085 32.7811 34.1462 32.7668C34.0839 32.7526 34.0186 32.76 33.9611 32.7879L13.8697 42.3753C13.8323 42.3932 13.7994 42.4192 13.7733 42.4514C13.7472 42.4836 13.7285 42.5212 13.7186 42.5615C13.7088 42.6017 13.7079 42.6437 13.7162 42.6843C13.7245 42.7249 13.7416 42.7632 13.7665 42.7964L17.9615 48.3911C18 48.4427 18.0551 48.4794 18.1174 48.4952C18.1798 48.511 18.2457 48.5048 18.3042 48.4778L38.8993 39.1382Z" stroke="#BABCC8" stroke-width="2"/>
<path d="M46.3023 33.9153C46.225 33.88 46.1388 33.8694 46.0553 33.8849C45.9718 33.9004 45.8951 33.9413 45.8357 34.002L41.3971 38.5686C41.35 38.6165 41.3154 38.6752 41.2961 38.7395C41.2769 38.8039 41.2736 38.872 41.2866 38.9379C41.2997 39.0038 41.3285 39.0655 41.3708 39.1177C41.4131 39.1699 41.4675 39.211 41.5292 39.2374L61.9551 48.1353C62.034 48.17 62.1219 48.1791 62.2063 48.1614C62.2907 48.1436 62.3675 48.0998 62.4258 48.0362L66.4927 43.5357C66.5361 43.4871 66.5673 43.4291 66.584 43.3662C66.6006 43.3033 66.6021 43.2374 66.5884 43.1738C66.5747 43.1102 66.5462 43.0507 66.5052 43.0002C66.4642 42.9498 66.4118 42.9097 66.3524 42.8833L46.3023 33.9153Z" stroke="#BABCC8" stroke-width="2"/>
<path d="M40.1092 58.3998C40.126 58.4076 40.1443 58.4116 40.1628 58.4116C40.1814 58.4116 40.1997 58.4076 40.2165 58.3998L61.0718 49.2005C61.0936 49.1902 61.1121 49.1738 61.125 49.1533C61.1379 49.1329 61.1448 49.1091 61.1448 49.0849C61.1448 49.0607 61.1379 49.037 61.125 49.0166C61.1121 48.9961 61.0936 48.9797 61.0718 48.9693L40.2 39.7164C40.1832 39.7086 40.1649 39.7046 40.1463 39.7046C40.1278 39.7046 40.1095 39.7086 40.0927 39.7164L19.5182 49.0973C19.4951 49.1072 19.4755 49.1236 19.4617 49.1445C19.4479 49.1654 19.4406 49.1899 19.4406 49.215C19.4406 49.2401 19.4479 49.2646 19.4617 49.2855C19.4755 49.3064 19.4951 49.3228 19.5182 49.3327L40.1092 58.3998Z" stroke="#B2B7C6" stroke-width="2"/>
<path d="M41.4138 59.044C41.3741 59.0615 41.3393 59.0885 41.3123 59.1225C41.2853 59.1564 41.267 59.1965 41.2589 59.2391C41.2508 59.2817 41.2531 59.3257 41.2657 59.3672C41.2783 59.4087 41.3008 59.4466 41.3312 59.4775L46.6988 64.9442C46.7382 64.9846 46.7894 65.0115 46.8449 65.0211C46.9005 65.0307 46.9578 65.0226 47.0085 64.9979L66.4681 55.2206C66.5046 55.2019 66.5363 55.1751 66.5608 55.1423C66.5853 55.1095 66.602 55.0715 66.6096 55.0313C66.6171 54.991 66.6154 54.9496 66.6045 54.9101C66.5936 54.8706 66.5737 54.8342 66.5466 54.8035L62.2896 50.0677C62.252 50.0261 62.2023 49.9974 62.1475 49.9856C62.0927 49.9737 62.0355 49.9793 61.9841 50.0016L41.4138 59.044Z" stroke="#BABCC8" stroke-width="2"/>
<path d="M33.1143 64.911C33.1818 64.9439 33.258 64.9549 33.332 64.9423C33.4061 64.9297 33.4744 64.8942 33.5272 64.8408L38.7379 59.5516C38.779 59.5102 38.8094 59.4593 38.8264 59.4035C38.8435 59.3476 38.8466 59.2885 38.8356 59.2312C38.8247 59.1738 38.7999 59.12 38.7634 59.0744C38.727 59.0288 38.6799 58.9928 38.6264 58.9695L18.2914 50.0303C18.2224 50.0008 18.1458 49.9937 18.0725 50.01C17.9991 50.0263 17.9328 50.0652 17.8827 50.1212L13.7001 54.7497C13.6631 54.7909 13.6362 54.84 13.6213 54.8934C13.6065 54.9467 13.6042 55.0027 13.6146 55.0571C13.625 55.1114 13.6478 55.1626 13.6813 55.2067C13.7147 55.2508 13.7579 55.2866 13.8074 55.3112L33.1143 64.911Z" stroke="#BABCC8" stroke-width="2"/>
<path d="M54.7419 62.3594L50.4437 64.4816" stroke="#B5A48E" stroke-width="2"/>
<path d="M50.4435 64.4818L47.7556 65.8237C47.0564 66.1732 46.4316 66.0714 45.8811 65.5181L41.0131 60.6253C40.6552 60.2647 40.4928 60.3377 40.5259 60.8442C40.6029 62.1104 40.6373 63.4509 40.6291 64.8657C40.6016 69.5342 40.5878 74.2013 40.5878 78.8669C40.5878 79.5689 40.5685 80.3382 40.53 81.175C40.5285 81.1982 40.5332 81.2212 40.5434 81.242C40.5537 81.2628 40.5693 81.2806 40.5887 81.2939C40.6081 81.3071 40.6307 81.3152 40.6544 81.3176C40.6781 81.3199 40.7021 81.3163 40.724 81.3071L50.4972 77.0048" stroke="#BABCC8" stroke-width="2"/>
<path d="M50.4972 77.0048L54.8408 75.0684" stroke="#B5A48E" stroke-width="2"/>
<path d="M54.8413 75.0681L61.1256 72.3224C61.3571 72.222 61.5541 72.0555 61.6921 71.8434C61.83 71.6312 61.903 71.3829 61.9018 71.1291L61.8605 58.9859C61.8607 58.9611 61.8544 58.9368 61.8422 58.9152C61.83 58.8937 61.8123 58.8756 61.7907 58.8628C61.7692 58.8499 61.7445 58.8427 61.7192 58.8419C61.6938 58.841 61.6685 58.8466 61.6458 58.8579L54.7422 62.3592" stroke="#BABCC8" stroke-width="2"/>
<path d="M54.8413 75.0682L54.7422 62.3594" stroke="#FAE7C5" stroke-width="2"/>
<path d="M50.4437 64.4819L50.4974 77.005" stroke="#FAE7C5" stroke-width="2"/>
<path d="M25.4677 75.1177L30.0715 77.1119" stroke="#B5A48E" stroke-width="2"/>
<path d="M30.0718 77.1122L39.1885 81.1916C39.2231 81.2072 39.2608 81.2149 39.2988 81.2142C39.3368 81.2134 39.3742 81.2042 39.4082 81.1872C39.4422 81.1702 39.472 81.1459 39.4954 81.1159C39.5188 81.0859 39.5353 81.0512 39.5435 81.0141C39.6041 80.7305 39.6358 80.436 39.6385 80.1305C39.6715 72.9709 39.6454 66.6853 39.5601 61.2736C39.5573 61.1388 39.5243 61.0108 39.461 60.8897C39.3701 60.7162 39.2559 60.6983 39.1183 60.836L34.3452 65.7081C34.1492 65.9094 33.8948 66.0439 33.6177 66.0928C33.3407 66.1417 33.055 66.1024 32.801 65.9806L30.0718 64.6676" stroke="#BABCC8" stroke-width="2"/>
<path d="M30.0714 64.6672L25.5668 62.4004" stroke="#B5A48E" stroke-width="2"/>
<path d="M25.5667 62.4008L18.5806 59.0357C18.4457 58.9724 18.3851 59.015 18.3989 59.1637C18.4512 59.6729 18.4815 60.1354 18.4897 60.551C18.5448 63.5073 18.5365 67.0981 18.4649 71.3234C18.4612 71.5505 18.525 71.7737 18.6485 71.9648C18.772 72.1559 18.9495 72.3063 19.1586 72.3969L25.4676 75.1179" stroke="#BABCC8" stroke-width="2"/>
<path d="M25.5668 62.4004L25.4677 75.1175" stroke="#FAE7C5" stroke-width="2"/>
<path d="M30.0718 77.1121V64.6675" stroke="#FAE7C5" stroke-width="2"/>
<path d="M41.577 1.00539L41.0732 1.00187C40.925 1.00084 40.804 1.12016 40.803 1.26837L40.7852 3.81173C40.7842 3.95995 40.9035 4.08095 41.0517 4.08198L41.5555 4.0855C41.7037 4.08653 41.8247 3.96722 41.8257 3.819L41.8435 1.27564C41.8445 1.12742 41.7252 1.00643 41.577 1.00539Z" fill="#747991"/>
<path d="M34.125 5.00554C34.6398 5.7167 35.2518 6.15229 35.4919 5.97847C35.7321 5.80464 35.5094 5.08721 34.9946 4.37605C34.4798 3.66489 33.8678 3.22929 33.6277 3.40312C33.3876 3.57695 33.6102 4.29437 34.125 5.00554Z" fill="#747991"/>
<path d="M47.6421 4.36971C47.1036 5.10021 46.8619 5.83611 47.1023 6.01338C47.3428 6.19065 47.9743 5.74216 48.5129 5.01166C49.0514 4.28115 49.2931 3.54526 49.0527 3.36799C48.8122 3.19072 48.1807 3.63921 47.6421 4.36971Z" fill="#747991"/>
<path d="M34.6092 9.11262C37.7101 4.79376 45.2577 4.64925 48.2223 9.49662C49.9289 12.2823 50.0955 15.0913 48.7219 17.9238C48.0998 19.2037 46.9781 20.3585 45.3568 21.3879C45.2522 21.454 45.1917 21.549 45.1752 21.6728C45.1311 21.9921 45.1118 22.3183 45.1174 22.6514C45.1531 24.9526 44.07 26.3839 41.8679 26.9455C40.5081 27.2896 39.2061 26.9179 37.9619 25.8307C36.9049 24.9058 36.6737 23.2872 36.8265 21.9164C36.8884 21.3755 36.5746 20.9461 36.1658 20.6365C32.5448 17.8783 31.9708 12.7915 34.6092 9.11262ZM44.242 20.8594C45.1834 20.1905 46.3725 19.6001 47.0125 18.6505C48.1714 16.9246 48.7109 15.3377 48.6311 13.8898C48.2429 6.94494 39.5516 4.24462 35.4309 9.87235C33.0031 13.192 33.7958 17.9361 37.2476 20.0667C38.4533 20.8099 37.5325 22.9487 38.1766 24.1956C39.2378 26.2394 41.7977 26.706 43.3832 24.848C44.209 23.8818 44.1677 22.6101 44.0067 21.3921C43.9791 21.1691 44.0576 20.9916 44.242 20.8594Z" fill="#747991"/>
<path d="M44.0068 21.3924C44.1678 22.6105 44.2091 23.8822 43.3833 24.8483C41.7978 26.7064 39.2379 26.2398 38.1767 24.196C37.5326 22.949 38.4534 20.8102 37.2477 20.067C33.7959 17.9365 33.0032 13.1924 35.431 9.87271C39.5516 4.24498 48.243 6.9453 48.6312 13.8902C48.711 15.338 48.1715 16.9249 47.0126 18.6508C46.3726 19.6005 45.1835 20.1909 44.2421 20.8598C44.0577 20.9919 43.9792 21.1695 44.0068 21.3924ZM38.0917 13.8589C38.3641 13.9923 38.6809 14.007 38.9723 13.8997C39.2637 13.7924 39.5059 13.5719 39.6456 13.2868C39.7853 13.0016 39.8111 12.6751 39.7172 12.379C39.6234 12.083 39.4177 11.8418 39.1453 11.7083C38.8729 11.5749 38.5561 11.5602 38.2647 11.6675C37.9733 11.7748 37.7312 11.9953 37.5914 12.2805C37.4517 12.5656 37.426 12.8922 37.5198 13.1882C37.6136 13.4842 37.8193 13.7255 38.0917 13.8589ZM45.1835 12.7754C45.1835 12.4633 45.0595 12.1639 44.8389 11.9433C44.6182 11.7226 44.3189 11.5986 44.0068 11.5986C43.6947 11.5986 43.3954 11.7226 43.1747 11.9433C42.954 12.1639 42.83 12.4633 42.83 12.7754C42.83 12.9299 42.8605 13.0829 42.9196 13.2257C42.9787 13.3684 43.0654 13.4982 43.1747 13.6074C43.2839 13.7167 43.4137 13.8034 43.5564 13.8625C43.6992 13.9217 43.8522 13.9521 44.0068 13.9521C44.1613 13.9521 44.3143 13.9217 44.4571 13.8625C44.5999 13.8034 44.7296 13.7167 44.8389 13.6074C44.9481 13.4982 45.0348 13.3684 45.0939 13.2257C45.1531 13.0829 45.1835 12.9299 45.1835 12.7754ZM43.4576 16.9497C41.6491 15.7234 39.1966 15.8555 38.1726 17.8994C38.1556 17.9335 38.1458 17.9709 38.144 18.009C38.1421 18.0471 38.1481 18.0852 38.1617 18.1209C38.1753 18.1566 38.1961 18.1891 38.2228 18.2163C38.2496 18.2436 38.2817 18.265 38.3171 18.2792C38.6474 18.4113 39.0562 18.3618 39.3039 18.0975C40.1627 17.185 41.5377 16.7267 42.6029 17.6475C43.0406 18.0246 43.4741 18.2324 43.9035 18.271C44.3742 18.3095 44.4816 18.1292 44.2256 17.7301C44.0302 17.4245 43.7742 17.1644 43.4576 16.9497Z" fill="white"/>
<path d="M31.939 10.4193L29.2436 9.49652C29.1185 9.45368 28.9823 9.52038 28.9395 9.64551L28.7656 10.1533C28.7228 10.2785 28.7895 10.4146 28.9146 10.4575L31.6099 11.3803C31.7351 11.4231 31.8712 11.3564 31.9141 11.2313L32.088 10.7235C32.1308 10.5984 32.0641 10.4622 31.939 10.4193Z" fill="#747991"/>
<path d="M53.0737 9.60899L50.7488 10.4644C50.5048 10.5542 50.3798 10.8247 50.4695 11.0687L50.5038 11.1617C50.5935 11.4057 50.8641 11.5307 51.108 11.4409L53.433 10.5855C53.677 10.4957 53.802 10.2252 53.7122 9.98121L53.678 9.88821C53.5883 9.64424 53.3177 9.51923 53.0737 9.60899Z" fill="#747991"/>
<path d="M37.5915 12.2799C37.3005 12.8738 37.5245 13.5805 38.0918 13.8584C38.659 14.1362 39.3547 13.8801 39.6456 13.2862C39.9366 12.6924 39.7126 11.9857 39.1453 11.7078C38.5781 11.4299 37.8824 11.686 37.5915 12.2799Z" fill="#747991"/>
<path d="M44.0065 13.9516C44.6564 13.9516 45.1833 13.4248 45.1833 12.7749C45.1833 12.125 44.6564 11.5981 44.0065 11.5981C43.3566 11.5981 42.8298 12.125 42.8298 12.7749C42.8298 13.4248 43.3566 13.9516 44.0065 13.9516Z" fill="#747991"/>
<path d="M38.1727 17.899C39.1967 15.8552 41.6493 15.7231 43.4578 16.9494C43.7743 17.1641 44.0303 17.4242 44.2258 17.7298C44.4817 18.1289 44.3744 18.3092 43.9037 18.2707C43.4743 18.2321 43.0408 18.0243 42.6031 17.6472C41.5378 16.7264 40.1629 17.1847 39.3041 18.0972C39.0563 18.3615 38.6476 18.411 38.3173 18.2789C38.2818 18.2647 38.2497 18.2433 38.223 18.216C38.1963 18.1888 38.1755 18.1563 38.1619 18.1206C38.1483 18.0849 38.1423 18.0468 38.1441 18.0087C38.146 17.9706 38.1557 17.9332 38.1727 17.899Z" fill="#747991"/>
<path d="M31.5582 17.6392L29.2088 18.337C29.1527 18.3539 29.093 18.355 29.0363 18.3402C28.9796 18.3253 28.9281 18.2951 28.8875 18.2528C28.8469 18.2105 28.8188 18.1578 28.8063 18.1005C28.7938 18.0432 28.7973 17.9836 28.8166 17.9282L28.9611 17.5153C28.9783 17.4663 29.0072 17.4222 29.0453 17.3869C29.0835 17.3517 29.1297 17.3263 29.1799 17.313L31.6738 16.673C31.7379 16.6575 31.8052 16.6623 31.8664 16.6866C31.9276 16.711 31.9797 16.7539 32.0156 16.8092C32.0514 16.8645 32.0691 16.9296 32.0663 16.9954C32.0636 17.0613 32.0404 17.1246 32 17.1767L31.7151 17.5318C31.675 17.5828 31.6202 17.6202 31.5582 17.6392Z" fill="#747991"/>
<path d="M53.433 17.4681L51.0296 16.7149C50.7859 16.6386 50.5264 16.7742 50.45 17.0179L50.4377 17.0573C50.3613 17.3011 50.497 17.5605 50.7407 17.6369L53.1441 18.3901C53.3878 18.4665 53.6473 18.3308 53.7236 18.0871L53.736 18.0477C53.8124 17.804 53.6767 17.5445 53.433 17.4681Z" fill="#747991"/>
<path d="M44.1221 27.3132C43.822 28.0701 43.5192 28.7831 43.2137 29.4519C42.6191 30.7526 40.4267 30.6287 39.3573 30.3108C38.3622 30.0176 37.9906 28.0853 37.7263 27.1893C37.6465 26.9195 37.7263 26.8576 37.9658 27.0035C39.3449 27.854 40.8726 28.6633 42.5118 27.8045C42.9632 27.5705 43.3789 27.3132 43.7587 27.0324C44.2074 26.7048 44.3285 26.7984 44.1221 27.3132Z" fill="#747991"/>
<path d="M63.045 49.2665C64.4158 50.7749 65.8334 52.3371 67.2978 53.9528C67.5317 54.2116 67.7038 54.5034 67.8139 54.8282C67.8483 54.9306 67.858 55.0398 67.8423 55.1467C67.8265 55.2536 67.7856 55.3553 67.723 55.4434C66.9386 56.5541 64.5314 57.4129 63.3423 57.9909C63.2236 58.0478 63.1234 58.1373 63.0533 58.2491C62.9831 58.3608 62.9459 58.4904 62.9459 58.6227C62.9376 62.7654 62.9404 66.8076 62.9541 70.7493C62.9596 72.0568 62.4036 72.9569 61.286 73.4496C54.1705 76.5876 47.4101 79.5577 41.0047 82.3599C40.4294 82.6131 39.8514 82.6131 39.2706 82.3599C32.9974 79.6375 26.336 76.7198 19.2866 73.6066C18.2543 73.1482 17.4162 72.9294 17.4285 71.5875C17.4533 68.0531 17.463 63.8196 17.4574 58.8869C17.4576 58.7101 17.4065 58.5371 17.3105 58.389C17.2145 58.2409 17.0776 58.1241 16.9166 58.0529C15.6944 57.5079 14.4695 56.9147 13.2418 56.2733C12.884 56.0861 12.5991 55.8315 12.3871 55.5094C12.3384 55.4364 12.3071 55.353 12.2956 55.2657C12.2842 55.1784 12.2929 55.0894 12.3211 55.0057C12.4532 54.6121 12.6665 54.2543 12.961 53.9322C14.3263 52.4458 15.6834 50.9263 17.0322 49.3739C17.1285 49.2665 17.1326 49.1564 17.0446 49.0435C15.6572 47.2351 14.2548 45.3867 12.8372 43.4984C12.5344 43.0938 12.3885 42.6795 12.3995 42.2556C12.4078 41.9335 12.5578 41.7037 12.8496 41.566L33.9319 31.669C34.0341 31.6209 34.1479 31.6031 34.2598 31.6178C34.3718 31.6324 34.4772 31.6788 34.5636 31.7516C34.8471 31.9883 35.1348 32.2801 35.4266 32.6269C36.99 34.4849 38.4888 36.3127 39.923 38.1101C39.9541 38.1487 39.9931 38.1803 40.0373 38.2028C40.0815 38.2252 40.13 38.238 40.1796 38.2404C40.2291 38.2427 40.2786 38.2345 40.3248 38.2163C40.3709 38.1982 40.4127 38.1704 40.4473 38.1349L45.4846 33.0439C45.5826 32.9445 45.7067 32.8745 45.8431 32.8417C45.9795 32.8089 46.1227 32.8146 46.2567 32.8581C46.8733 33.0591 47.4665 33.2862 48.0363 33.5394C54.5325 36.4462 61.0906 39.3874 67.7107 42.3629C67.7891 42.3976 67.8595 42.448 67.9176 42.5112C67.9757 42.5743 68.0203 42.6488 68.0485 42.73C68.0768 42.8113 68.0881 42.8975 68.0818 42.9835C68.0756 43.0695 68.0518 43.1534 68.0121 43.23C67.902 43.4392 67.7409 43.6663 67.529 43.9113C66.0784 45.5656 64.5851 47.2144 63.0491 48.8577C62.9225 48.9926 62.9211 49.1289 63.045 49.2665ZM38.899 39.1382C38.9377 39.1205 38.9718 39.0942 38.9988 39.0614C39.0258 39.0285 39.045 38.99 39.055 38.9486C39.0649 38.9073 39.0653 38.8642 39.0562 38.8227C39.0471 38.7811 39.0286 38.7422 39.0022 38.7088L34.3035 32.8664C34.2638 32.8163 34.2082 32.7812 34.1459 32.7669C34.0836 32.7526 34.0183 32.7601 33.9608 32.7879L13.8694 42.3753C13.8321 42.3933 13.7991 42.4193 13.773 42.4515C13.7469 42.4837 13.7282 42.5213 13.7184 42.5615C13.7085 42.6018 13.7077 42.6437 13.7159 42.6844C13.7242 42.725 13.7414 42.7633 13.7662 42.7965L17.9612 48.3912C17.9997 48.4427 18.0548 48.4794 18.1172 48.4952C18.1796 48.511 18.2455 48.5049 18.3039 48.4779L38.899 39.1382ZM46.3022 33.9151C46.2249 33.8799 46.1387 33.8693 46.0552 33.8848C45.9717 33.9003 45.895 33.9412 45.8356 34.0018L41.397 38.5684C41.3499 38.6164 41.3153 38.6751 41.296 38.7394C41.2768 38.8038 41.2735 38.8719 41.2865 38.9378C41.2995 39.0037 41.3284 39.0654 41.3707 39.1176C41.413 39.1698 41.4674 39.2109 41.5291 39.2373L61.9549 48.1352C62.0339 48.1699 62.1218 48.179 62.2062 48.1613C62.2906 48.1435 62.3674 48.0997 62.4256 48.0361L66.4926 43.5356C66.5359 43.487 66.5672 43.429 66.5838 43.3661C66.6005 43.3032 66.602 43.2373 66.5883 43.1737C66.5746 43.1101 66.5461 43.0506 66.5051 43.0001C66.4641 42.9497 66.4117 42.9096 66.3522 42.8832L46.3022 33.9151ZM40.1088 58.3997C40.1256 58.4075 40.1439 58.4115 40.1624 58.4115C40.181 58.4115 40.1993 58.4075 40.2161 58.3997L61.0713 49.2004C61.0932 49.1901 61.1117 49.1737 61.1246 49.1532C61.1375 49.1328 61.1444 49.109 61.1444 49.0848C61.1444 49.0606 61.1375 49.0369 61.1246 49.0165C61.1117 48.996 61.0932 48.9796 61.0713 48.9692L40.1996 39.7163C40.1828 39.7085 40.1645 39.7045 40.1459 39.7045C40.1274 39.7045 40.1091 39.7085 40.0922 39.7163L19.5178 49.0972C19.4947 49.1071 19.4751 49.1235 19.4613 49.1444C19.4475 49.1653 19.4401 49.1898 19.4401 49.2149C19.4401 49.24 19.4475 49.2645 19.4613 49.2854C19.4751 49.3063 19.4947 49.3227 19.5178 49.3326L40.1088 58.3997ZM41.4135 59.0438C41.3738 59.0614 41.339 59.0883 41.3121 59.1223C41.2851 59.1563 41.2668 59.1963 41.2586 59.2389C41.2505 59.2816 41.2529 59.3255 41.2654 59.367C41.278 59.4086 41.3005 59.4464 41.3309 59.4774L46.6985 64.944C46.738 64.9844 46.7891 65.0113 46.8447 65.021C46.9003 65.0306 46.9575 65.0225 47.0082 64.9977L66.4678 55.2204C66.5043 55.2018 66.536 55.175 66.5605 55.1422C66.5851 55.1094 66.6017 55.0714 66.6093 55.0311C66.6169 54.9909 66.6151 54.9494 66.6042 54.91C66.5933 54.8705 66.5735 54.834 66.5463 54.8034L62.2894 50.0675C62.2517 50.026 62.202 49.9973 62.1472 49.9854C62.0924 49.9736 62.0353 49.9792 61.9838 50.0015L41.4135 59.0438ZM33.1143 64.911C33.1819 64.944 33.258 64.9549 33.3321 64.9423C33.4062 64.9297 33.4744 64.8942 33.5272 64.8408L38.738 59.5517C38.7791 59.5102 38.8094 59.4594 38.8265 59.4035C38.8435 59.3477 38.8467 59.2885 38.8357 59.2312C38.8247 59.1739 38.7999 59.1201 38.7635 59.0745C38.727 59.0289 38.68 58.9928 38.6265 58.9695L18.2915 50.0304C18.2224 50.0009 18.1458 49.9938 18.0725 50.0101C17.9992 50.0264 17.9328 50.0652 17.8827 50.1212L13.7001 54.7497C13.6632 54.7909 13.6362 54.8401 13.6214 54.8934C13.6066 54.9467 13.6043 55.0027 13.6146 55.0571C13.625 55.1115 13.6479 55.1627 13.6813 55.2068C13.7147 55.2508 13.7579 55.2866 13.8075 55.3113L33.1143 64.911ZM54.7417 62.3593L50.4435 64.4816L47.7555 65.8235C47.0564 66.1731 46.4315 66.0713 45.881 65.518L41.013 60.6252C40.6552 60.2646 40.4928 60.3375 40.5258 60.844C40.6029 62.1102 40.6373 63.4508 40.629 64.8656C40.6015 69.534 40.5877 74.2011 40.5877 78.8668C40.5877 79.5687 40.5685 80.3381 40.5299 81.1749C40.5285 81.198 40.5331 81.2211 40.5434 81.2419C40.5537 81.2627 40.5692 81.2805 40.5886 81.2937C40.6081 81.3069 40.6307 81.3151 40.6544 81.3174C40.678 81.3197 40.702 81.3162 40.724 81.307L50.4972 77.0047L54.8408 75.0682L61.125 72.3225C61.3565 72.2221 61.5535 72.0556 61.6915 71.8435C61.8295 71.6313 61.9024 71.383 61.9013 71.1292L61.86 58.986C61.8602 58.9612 61.8539 58.9369 61.8417 58.9153C61.8294 58.8938 61.8117 58.8757 61.7902 58.8629C61.7686 58.85 61.744 58.8428 61.7186 58.842C61.6932 58.8411 61.668 58.8467 61.6453 58.858L54.7417 62.3593ZM25.4676 75.1177L30.0713 77.112L39.188 81.1914C39.2227 81.207 39.2604 81.2147 39.2984 81.214C39.3364 81.2132 39.3737 81.204 39.4077 81.187C39.4417 81.17 39.4715 81.1456 39.495 81.1157C39.5184 81.0857 39.5348 81.051 39.5431 81.0139C39.6037 80.7303 39.6353 80.4358 39.6381 80.1303C39.6711 72.9707 39.6449 66.6851 39.5596 61.2734C39.5569 61.1386 39.5238 61.0106 39.4605 60.8894C39.3697 60.716 39.2555 60.6981 39.1178 60.8358L34.3448 65.7079C34.1488 65.9091 33.8943 66.0437 33.6173 66.0926C33.3403 66.1415 33.0546 66.1022 32.8006 65.9804L30.0713 64.6674L25.5667 62.4006L18.5805 59.0356C18.4456 58.9722 18.3851 59.0149 18.3988 59.1635C18.4511 59.6728 18.4814 60.1352 18.4897 60.5509C18.5447 63.5072 18.5365 67.098 18.4649 71.3233C18.4611 71.5504 18.525 71.7736 18.6485 71.9647C18.7719 72.1558 18.9495 72.3061 19.1586 72.3968L25.4676 75.1177Z" fill="#747991"/>
<path d="M38.8993 39.1382L18.3042 48.4778C18.2457 48.5048 18.1798 48.511 18.1174 48.4952C18.0551 48.4794 18 48.4427 17.9615 48.3911L13.7665 42.7964C13.7416 42.7632 13.7245 42.7249 13.7162 42.6843C13.7079 42.6437 13.7088 42.6017 13.7186 42.5615C13.7285 42.5212 13.7472 42.4836 13.7733 42.4514C13.7994 42.4192 13.8323 42.3932 13.8697 42.3753L33.9611 32.7879C34.0186 32.76 34.0839 32.7526 34.1462 32.7668C34.2085 32.7811 34.2641 32.8162 34.3038 32.8663L39.0025 38.7088C39.0289 38.7421 39.0473 38.7811 39.0565 38.8226C39.0656 38.8642 39.0652 38.9072 39.0553 38.9486C39.0453 38.9899 39.0261 39.0285 38.9991 39.0613C38.9721 39.0942 38.9379 39.1205 38.8993 39.1382Z" fill="white"/>
<path d="M46.3023 33.9153L66.3524 42.8833C66.4118 42.9097 66.4642 42.9498 66.5052 43.0002C66.5462 43.0507 66.5747 43.1102 66.5884 43.1738C66.6021 43.2374 66.6006 43.3033 66.584 43.3662C66.5673 43.4291 66.5361 43.4871 66.4927 43.5357L62.4258 48.0362C62.3675 48.0998 62.2907 48.1436 62.2063 48.1614C62.1219 48.1791 62.034 48.17 61.9551 48.1353L41.5292 39.2374C41.4675 39.211 41.4131 39.1699 41.3708 39.1177C41.3285 39.0655 41.2997 39.0038 41.2866 38.9379C41.2736 38.872 41.2769 38.8039 41.2961 38.7395C41.3154 38.6752 41.35 38.6165 41.3971 38.5686L45.8357 34.002C45.8951 33.9413 45.9718 33.9004 46.0553 33.8849C46.1388 33.8694 46.225 33.88 46.3023 33.9153Z" fill="white"/>
<path d="M40.1087 58.3998L19.5177 49.3327C19.4947 49.3228 19.475 49.3064 19.4612 49.2855C19.4474 49.2646 19.4401 49.2401 19.4401 49.215C19.4401 49.1899 19.4474 49.1654 19.4612 49.1445C19.475 49.1236 19.4947 49.1072 19.5177 49.0973L40.0922 39.7164C40.109 39.7086 40.1273 39.7046 40.1458 39.7046C40.1644 39.7046 40.1827 39.7086 40.1995 39.7164L61.0713 48.9693C61.0931 48.9797 61.1116 48.9961 61.1245 49.0166C61.1375 49.037 61.1443 49.0607 61.1443 49.0849C61.1443 49.1091 61.1375 49.1329 61.1245 49.1533C61.1116 49.1738 61.0931 49.1902 61.0713 49.2005L40.216 58.3998C40.1992 58.4076 40.1809 58.4116 40.1624 58.4116C40.1438 58.4116 40.1255 58.4076 40.1087 58.3998Z" fill="#F0F5FB"/>
<path d="M41.4138 59.044L61.9841 50.0016C62.0355 49.9793 62.0927 49.9737 62.1475 49.9856C62.2023 49.9974 62.252 50.0261 62.2896 50.0677L66.5466 54.8035C66.5737 54.8342 66.5936 54.8706 66.6045 54.9101C66.6154 54.9496 66.6171 54.991 66.6096 55.0313C66.602 55.0715 66.5853 55.1095 66.5608 55.1423C66.5363 55.1751 66.5046 55.2019 66.4681 55.2206L47.0085 64.9979C46.9578 65.0226 46.9005 65.0307 46.8449 65.0211C46.7894 65.0115 46.7382 64.9846 46.6988 64.9442L41.3312 59.4775C41.3008 59.4466 41.2783 59.4087 41.2657 59.3672C41.2531 59.3257 41.2508 59.2817 41.2589 59.2391C41.267 59.1965 41.2853 59.1564 41.3123 59.1225C41.3393 59.0885 41.3741 59.0615 41.4138 59.044Z" fill="white"/>
<path d="M33.1143 64.911L13.8074 55.3112C13.7579 55.2866 13.7147 55.2508 13.6813 55.2067C13.6478 55.1626 13.625 55.1114 13.6146 55.0571C13.6042 55.0027 13.6065 54.9467 13.6213 54.8934C13.6362 54.84 13.6631 54.7909 13.7001 54.7497L17.8827 50.1212C17.9328 50.0652 17.9991 50.0263 18.0725 50.01C18.1458 49.9937 18.2224 50.0008 18.2914 50.0303L38.6264 58.9695C38.6799 58.9928 38.727 59.0288 38.7634 59.0744C38.7999 59.12 38.8247 59.1738 38.8356 59.2312C38.8466 59.2885 38.8435 59.3476 38.8264 59.4035C38.8094 59.4593 38.779 59.5102 38.7379 59.5516L33.5272 64.8408C33.4744 64.8942 33.4061 64.9297 33.332 64.9423C33.258 64.9549 33.1818 64.9439 33.1143 64.911Z" fill="white"/>
<path d="M54.8409 75.0681L54.7418 62.3592L61.6453 58.8579C61.6681 58.8466 61.6933 58.841 61.7187 58.8419C61.7441 58.8427 61.7687 58.8499 61.7902 58.8628C61.8118 58.8756 61.8295 58.8937 61.8417 58.9152C61.854 58.9368 61.8603 58.9611 61.86 58.9859L61.9013 71.1291C61.9025 71.3829 61.8296 71.6312 61.6916 71.8434C61.5536 72.0555 61.3566 72.222 61.1251 72.3224L54.8409 75.0681Z" fill="white"/>
<path d="M25.5667 62.4008L25.4676 75.1179L19.1586 72.3969C18.9495 72.3063 18.772 72.1559 18.6485 71.9648C18.525 71.7737 18.4612 71.5505 18.4649 71.3234C18.5365 67.0981 18.5448 63.5073 18.4897 60.551C18.4815 60.1354 18.4512 59.6729 18.3989 59.1637C18.3851 59.015 18.4457 58.9724 18.5806 59.0357L25.5667 62.4008Z" fill="white"/>
<path d="M50.4435 64.4818L50.4972 77.0048L40.724 81.3071C40.7021 81.3163 40.6781 81.3199 40.6544 81.3176C40.6307 81.3152 40.6081 81.3071 40.5887 81.2939C40.5693 81.2806 40.5537 81.2628 40.5434 81.242C40.5332 81.2212 40.5285 81.1982 40.53 81.175C40.5685 80.3382 40.5878 79.5689 40.5878 78.8669C40.5878 74.2013 40.6016 69.5342 40.6291 64.8657C40.6373 63.4509 40.6029 62.1104 40.5259 60.8442C40.4928 60.3377 40.6552 60.2647 41.0131 60.6253L45.8811 65.5181C46.4316 66.0714 47.0564 66.1732 47.7556 65.8237L50.4435 64.4818Z" fill="white"/>
<path d="M30.0714 77.1122V64.6676L32.8006 65.9806C33.0546 66.1024 33.3403 66.1417 33.6173 66.0928C33.8944 66.0439 34.1488 65.9094 34.3448 65.7081L39.1178 60.836C39.2555 60.6983 39.3697 60.7162 39.4605 60.8897C39.5238 61.0108 39.5569 61.1388 39.5596 61.2736C39.645 66.6853 39.6711 72.9709 39.6381 80.1305C39.6353 80.436 39.6037 80.7305 39.5431 81.0141C39.5348 81.0512 39.5184 81.0859 39.495 81.1159C39.4716 81.1459 39.4418 81.1702 39.4078 81.1872C39.3738 81.2042 39.3364 81.2134 39.2984 81.2142C39.2604 81.2149 39.2227 81.2072 39.188 81.1916L30.0714 77.1122Z" fill="white"/>
<path d="M25.5668 62.4004L30.0715 64.6672V77.1118L25.4677 75.1175L25.5668 62.4004Z" fill="#F5CE8A"/>
<path d="M54.7419 62.3594L54.841 75.0682L50.4974 77.0047L50.4437 64.4816L54.7419 62.3594Z" fill="#F5CE8A"/>
<path d="M78.3098 83.8877H1.76771C1.61264 83.8877 1.48694 84.0134 1.48694 84.1685V84.2676C1.48694 84.4226 1.61264 84.5483 1.76771 84.5483H78.3098C78.4649 84.5483 78.5906 84.4226 78.5906 84.2676V84.1685C78.5906 84.0134 78.4649 83.8877 78.3098 83.8877Z" fill="#455A77"/>
<path d="M48.1936 87.3022H14.7079C14.5894 87.3022 14.4932 87.3984 14.4932 87.517V87.7151C14.4932 87.8337 14.5894 87.9298 14.7079 87.9298H48.1936C48.3121 87.9298 48.4083 87.8337 48.4083 87.7151V87.517C48.4083 87.3984 48.3121 87.3022 48.1936 87.3022Z" fill="#455A77"/>
<path d="M70.8638 87.2488L52.1764 87.3141C52.1148 87.3143 52.0651 87.3644 52.0653 87.4259L52.0669 87.8884C52.0671 87.9499 52.1172 87.9997 52.1788 87.9995L70.8662 87.9342C70.9277 87.934 70.9775 87.8839 70.9773 87.8224L70.9757 87.3599C70.9754 87.2984 70.9254 87.2486 70.8638 87.2488Z" fill="#455A77"/>
</svg>
