<svg width="45" height="45" viewBox="0 0 45 45" fill="none" xmlns="http://www.w3.org/2000/svg">
<rect width="45" height="45" rx="22.5" fill="#323233"/>
<path d="M30.47 16.93L22.5 12.5L14.53 16.93L19.6 19.74C20.33 18.98 21.36 18.5 22.5 18.5C23.64 18.5 24.67 18.98 25.4 19.74L30.47 16.93ZM20.5 22.5C20.5 21.4 21.4 20.5 22.5 20.5C23.6 20.5 24.5 21.4 24.5 22.5C24.5 23.6 23.6 24.5 22.5 24.5C21.4 24.5 20.5 23.6 20.5 22.5ZM21.5 31.94L13.5 27.5V18.64L18.63 21.49C18.54 21.81 18.5 22.15 18.5 22.5C18.5 24.36 19.77 25.93 21.5 26.37V31.94ZM23.5 31.94V26.37C25.23 25.93 26.5 24.36 26.5 22.5C26.5 22.15 26.46 21.81 26.37 21.49L31.5 18.64V27.5L23.5 31.94Z" fill="white"/>
</svg>
