<svg width="40" height="41" viewBox="0 0 40 41" fill="none" xmlns="http://www.w3.org/2000/svg">
<rect y="0.5" width="40" height="40" rx="20" fill="white"/>
<path d="M23.2188 19.25C23.5639 19.25 23.8438 18.9702 23.8438 18.625C23.8438 18.2798 23.5639 18 23.2188 18C22.8736 18 22.5938 18.2798 22.5938 18.625C22.5938 18.9702 22.8736 19.25 23.2188 19.25Z" fill="#323233"/>
<path d="M23.2188 23C23.5639 23 23.8438 22.7202 23.8438 22.375C23.8438 22.0298 23.5639 21.75 23.2188 21.75C22.8736 21.75 22.5938 22.0298 22.5938 22.375C22.5938 22.7202 22.8736 23 23.2188 23Z" fill="#323233"/>
<path d="M24.8438 21.125C25.1889 21.125 25.4688 20.8452 25.4688 20.5C25.4688 20.1548 25.1889 19.875 24.8438 19.875C24.4986 19.875 24.2188 20.1548 24.2188 20.5C24.2188 20.8452 24.4986 21.125 24.8438 21.125Z" fill="#323233"/>
<path d="M16.75 19.25C17.0952 19.25 17.375 18.9702 17.375 18.625C17.375 18.2798 17.0952 18 16.75 18C16.4048 18 16.125 18.2798 16.125 18.625C16.125 18.9702 16.4048 19.25 16.75 19.25Z" fill="#323233"/>
<path d="M16.75 23C17.0952 23 17.375 22.7202 17.375 22.375C17.375 22.0298 17.0952 21.75 16.75 21.75C16.4048 21.75 16.125 22.0298 16.125 22.375C16.125 22.7202 16.4048 23 16.75 23Z" fill="#323233"/>
<path d="M15.125 21.125C15.4702 21.125 15.75 20.8452 15.75 20.5C15.75 20.1548 15.4702 19.875 15.125 19.875C14.7798 19.875 14.5 20.1548 14.5 20.5C14.5 20.8452 14.7798 21.125 15.125 21.125Z" fill="#323233"/>
<path d="M22.4375 16.875C22.7827 16.875 23.0625 16.5952 23.0625 16.25C23.0625 15.9048 22.7827 15.625 22.4375 15.625C22.0923 15.625 21.8125 15.9048 21.8125 16.25C21.8125 16.5952 22.0923 16.875 22.4375 16.875Z" fill="#323233"/>
<path d="M17.5625 16.875C17.9077 16.875 18.1875 16.5952 18.1875 16.25C18.1875 15.9048 17.9077 15.625 17.5625 15.625C17.2173 15.625 16.9375 15.9048 16.9375 16.25C16.9375 16.5952 17.2173 16.875 17.5625 16.875Z" fill="#323233"/>
<path d="M20.0312 17.375C20.3764 17.375 20.6562 17.0952 20.6562 16.75C20.6562 16.4048 20.3764 16.125 20.0312 16.125C19.6861 16.125 19.4062 16.4048 19.4062 16.75C19.4062 17.0952 19.6861 17.375 20.0312 17.375Z" fill="#323233"/>
<path d="M22.4375 25.5C22.7827 25.5 23.0625 25.2202 23.0625 24.875C23.0625 24.5298 22.7827 24.25 22.4375 24.25C22.0923 24.25 21.8125 24.5298 21.8125 24.875C21.8125 25.2202 22.0923 25.5 22.4375 25.5Z" fill="#323233"/>
<path d="M17.5625 25.5C17.9077 25.5 18.1875 25.2202 18.1875 24.875C18.1875 24.5298 17.9077 24.25 17.5625 24.25C17.2173 24.25 16.9375 24.5298 16.9375 24.875C16.9375 25.2202 17.2173 25.5 17.5625 25.5Z" fill="#323233"/>
<path d="M20.0312 25C20.3764 25 20.6562 24.7202 20.6562 24.375C20.6562 24.0298 20.3764 23.75 20.0312 23.75C19.6861 23.75 19.4062 24.0298 19.4062 24.375C19.4062 24.7202 19.6861 25 20.0312 25Z" fill="#323233"/>
<path d="M21.0938 19.4062C21.5252 19.4062 21.875 19.0565 21.875 18.625C21.875 18.1935 21.5252 17.8438 21.0938 17.8438C20.6623 17.8438 20.3125 18.1935 20.3125 18.625C20.3125 19.0565 20.6623 19.4062 21.0938 19.4062Z" fill="#323233"/>
<path d="M18.9062 19.4062C19.3377 19.4062 19.6875 19.0565 19.6875 18.625C19.6875 18.1935 19.3377 17.8438 18.9062 17.8438C18.4748 17.8438 18.125 18.1935 18.125 18.625C18.125 19.0565 18.4748 19.4062 18.9062 19.4062Z" fill="#323233"/>
<path d="M22.1875 21.2812C22.619 21.2812 22.9688 20.9315 22.9688 20.5C22.9688 20.0685 22.619 19.7188 22.1875 19.7188C21.756 19.7188 21.4062 20.0685 21.4062 20.5C21.4062 20.9315 21.756 21.2812 22.1875 21.2812Z" fill="#323233"/>
<path d="M17.8125 21.2812C18.244 21.2812 18.5938 20.9315 18.5938 20.5C18.5938 20.0685 18.244 19.7188 17.8125 19.7188C17.381 19.7188 17.0312 20.0685 17.0312 20.5C17.0312 20.9315 17.381 21.2812 17.8125 21.2812Z" fill="#323233"/>
<path d="M18.9062 23.1562C19.3377 23.1562 19.6875 22.8065 19.6875 22.375C19.6875 21.9435 19.3377 21.5938 18.9062 21.5938C18.4748 21.5938 18.125 21.9435 18.125 22.375C18.125 22.8065 18.4748 23.1562 18.9062 23.1562Z" fill="#323233"/>
<path d="M21.0938 23.1562C21.5252 23.1562 21.875 22.8065 21.875 22.375C21.875 21.9435 21.5252 21.5938 21.0938 21.5938C20.6623 21.5938 20.3125 21.9435 20.3125 22.375C20.3125 22.8065 20.6623 23.1562 21.0938 23.1562Z" fill="#323233"/>
<path d="M20 15.0814C19.6937 15.0814 19.45 14.8377 19.45 14.5314C19.45 14.2252 19.6937 13.9814 20 13.9814C20.3062 13.9814 20.55 14.2252 20.55 14.5314C20.55 14.8377 20.3062 15.0814 20 15.0814Z" fill="#323233"/>
<path d="M23.2813 15.25C23.0188 15.25 22.8063 15.0375 22.8063 14.7812C22.8063 14.525 23.0188 14.3125 23.275 14.3125C23.5313 14.3125 23.75 14.525 23.75 14.7812C23.75 15.0375 23.5438 15.25 23.2813 15.25Z" fill="#323233"/>
<path d="M16.7188 15.25C16.4625 15.25 16.25 15.0375 16.25 14.7812C16.25 14.525 16.4563 14.3125 16.7188 14.3125H16.725C16.9813 14.3125 17.1938 14.525 17.1938 14.7812C17.1938 15.0375 16.9812 15.25 16.7188 15.25Z" fill="#323233"/>
<path d="M20 26.9877C19.6937 26.9877 19.45 26.7439 19.45 26.4377C19.45 26.1314 19.6937 25.8877 20 25.8877C20.3062 25.8877 20.55 26.1314 20.55 26.4377C20.55 26.7439 20.3062 26.9877 20 26.9877Z" fill="#323233"/>
<path d="M23.2813 26.6562C23.0188 26.6562 22.8063 26.4438 22.8063 26.1875C22.8063 25.9313 23.0188 25.7188 23.275 25.7188C23.5313 25.7188 23.75 25.9313 23.75 26.1875C23.75 26.4438 23.5438 26.6562 23.2813 26.6562Z" fill="#323233"/>
<path d="M16.7188 26.6562C16.4625 26.6562 16.25 26.4438 16.25 26.1875C16.25 25.9313 16.4563 25.7188 16.7188 25.7188H16.725C16.9813 25.7188 17.1938 25.9313 17.1938 26.1875C17.1938 26.4438 16.9812 26.6562 16.7188 26.6562Z" fill="#323233"/>
<path d="M13.4687 21.0502C13.1687 21.0502 12.9187 20.8064 12.9187 20.5064V20.5002C12.9187 20.2002 13.1624 19.9502 13.4687 19.9502C13.7749 19.9502 14.0187 20.1939 14.0187 20.5002C14.0187 20.8064 13.7687 21.0502 13.4687 21.0502Z" fill="#323233"/>
<path d="M14.8438 24.0937C14.5875 24.0937 14.375 23.8874 14.375 23.6249V23.6187C14.375 23.3624 14.5875 23.1499 14.8438 23.1499C15.1 23.1499 15.3125 23.3624 15.3125 23.6187C15.3125 23.8749 15.1 24.0937 14.8438 24.0937Z" fill="#323233"/>
<path d="M14.8438 17.8501C14.5875 17.8501 14.375 17.6376 14.375 17.3813C14.375 17.1251 14.5875 16.9126 14.8438 16.9126C15.1 16.9126 15.3125 17.1188 15.3125 17.3751V17.3813C15.3125 17.6376 15.1 17.8501 14.8438 17.8501Z" fill="#323233"/>
<path d="M26.5625 21.0502C26.2625 21.0502 26.0125 20.8064 26.0125 20.5064V20.5002C26.0125 20.2002 26.2562 19.9502 26.5625 19.9502C26.8687 19.9502 27.1125 20.1939 27.1125 20.5002C27.1125 20.8064 26.8625 21.0502 26.5625 21.0502Z" fill="#323233"/>
<path d="M25.1875 24.0937C24.9313 24.0937 24.7188 23.8874 24.7188 23.6249V23.6187C24.7188 23.3624 24.9313 23.1499 25.1875 23.1499C25.4438 23.1499 25.6562 23.3624 25.6562 23.6187C25.6562 23.8749 25.4438 24.0937 25.1875 24.0937Z" fill="#323233"/>
<path d="M25.1875 17.8501C24.9313 17.8501 24.7188 17.6376 24.7188 17.3813C24.7188 17.1251 24.9313 16.9126 25.1875 16.9126C25.4438 16.9126 25.6562 17.1188 25.6562 17.3813V17.3876C25.6562 17.6376 25.4438 17.8501 25.1875 17.8501Z" fill="#323233"/>
</svg>
