<svg width="50" height="51" viewBox="0 0 50 51" fill="none" xmlns="http://www.w3.org/2000/svg">
<rect y="0.5" width="50" height="50" rx="25" fill="#323233"/>
<path d="M29.2917 23.8332C29.7519 23.8332 30.125 23.4601 30.125 22.9998C30.125 22.5396 29.7519 22.1665 29.2917 22.1665C28.8314 22.1665 28.4583 22.5396 28.4583 22.9998C28.4583 23.4601 28.8314 23.8332 29.2917 23.8332Z" fill="white"/>
<path d="M29.2917 28.8332C29.7519 28.8332 30.125 28.4601 30.125 27.9998C30.125 27.5396 29.7519 27.1665 29.2917 27.1665C28.8314 27.1665 28.4583 27.5396 28.4583 27.9998C28.4583 28.4601 28.8314 28.8332 29.2917 28.8332Z" fill="white"/>
<path d="M31.4583 26.3332C31.9186 26.3332 32.2917 25.9601 32.2917 25.4998C32.2917 25.0396 31.9186 24.6665 31.4583 24.6665C30.9981 24.6665 30.625 25.0396 30.625 25.4998C30.625 25.9601 30.9981 26.3332 31.4583 26.3332Z" fill="white"/>
<path d="M20.6667 23.8332C21.1269 23.8332 21.5 23.4601 21.5 22.9998C21.5 22.5396 21.1269 22.1665 20.6667 22.1665C20.2064 22.1665 19.8333 22.5396 19.8333 22.9998C19.8333 23.4601 20.2064 23.8332 20.6667 23.8332Z" fill="white"/>
<path d="M20.6667 28.8332C21.1269 28.8332 21.5 28.4601 21.5 27.9998C21.5 27.5396 21.1269 27.1665 20.6667 27.1665C20.2064 27.1665 19.8333 27.5396 19.8333 27.9998C19.8333 28.4601 20.2064 28.8332 20.6667 28.8332Z" fill="white"/>
<path d="M18.5 26.3332C18.9603 26.3332 19.3334 25.9601 19.3334 25.4998C19.3334 25.0396 18.9603 24.6665 18.5 24.6665C18.0398 24.6665 17.6667 25.0396 17.6667 25.4998C17.6667 25.9601 18.0398 26.3332 18.5 26.3332Z" fill="white"/>
<path d="M28.25 20.6667C28.7103 20.6667 29.0834 20.2936 29.0834 19.8333C29.0834 19.3731 28.7103 19 28.25 19C27.7898 19 27.4167 19.3731 27.4167 19.8333C27.4167 20.2936 27.7898 20.6667 28.25 20.6667Z" fill="white"/>
<path d="M21.75 20.6667C22.2103 20.6667 22.5834 20.2936 22.5834 19.8333C22.5834 19.3731 22.2103 19 21.75 19C21.2898 19 20.9167 19.3731 20.9167 19.8333C20.9167 20.2936 21.2898 20.6667 21.75 20.6667Z" fill="white"/>
<path d="M25.0417 21.3332C25.5019 21.3332 25.875 20.9601 25.875 20.4998C25.875 20.0396 25.5019 19.6665 25.0417 19.6665C24.5814 19.6665 24.2083 20.0396 24.2083 20.4998C24.2083 20.9601 24.5814 21.3332 25.0417 21.3332Z" fill="white"/>
<path d="M28.25 32.1667C28.7103 32.1667 29.0834 31.7936 29.0834 31.3333C29.0834 30.8731 28.7103 30.5 28.25 30.5C27.7898 30.5 27.4167 30.8731 27.4167 31.3333C27.4167 31.7936 27.7898 32.1667 28.25 32.1667Z" fill="white"/>
<path d="M21.75 32.1667C22.2103 32.1667 22.5834 31.7936 22.5834 31.3333C22.5834 30.8731 22.2103 30.5 21.75 30.5C21.2898 30.5 20.9167 30.8731 20.9167 31.3333C20.9167 31.7936 21.2898 32.1667 21.75 32.1667Z" fill="white"/>
<path d="M25.0417 31.5002C25.5019 31.5002 25.875 31.1271 25.875 30.6668C25.875 30.2066 25.5019 29.8335 25.0417 29.8335C24.5814 29.8335 24.2083 30.2066 24.2083 30.6668C24.2083 31.1271 24.5814 31.5002 25.0417 31.5002Z" fill="white"/>
<path d="M26.4583 24.0418C27.0336 24.0418 27.5 23.5755 27.5 23.0002C27.5 22.4249 27.0336 21.9585 26.4583 21.9585C25.883 21.9585 25.4167 22.4249 25.4167 23.0002C25.4167 23.5755 25.883 24.0418 26.4583 24.0418Z" fill="white"/>
<path d="M23.5417 24.0418C24.117 24.0418 24.5833 23.5755 24.5833 23.0002C24.5833 22.4249 24.117 21.9585 23.5417 21.9585C22.9664 21.9585 22.5 22.4249 22.5 23.0002C22.5 23.5755 22.9664 24.0418 23.5417 24.0418Z" fill="white"/>
<path d="M27.9167 26.5418C28.492 26.5418 28.9583 26.0755 28.9583 25.5002C28.9583 24.9249 28.492 24.4585 27.9167 24.4585C27.3414 24.4585 26.875 24.9249 26.875 25.5002C26.875 26.0755 27.3414 26.5418 27.9167 26.5418Z" fill="white"/>
<path d="M22.0833 26.5418C22.6586 26.5418 23.125 26.0755 23.125 25.5002C23.125 24.9249 22.6586 24.4585 22.0833 24.4585C21.508 24.4585 21.0417 24.9249 21.0417 25.5002C21.0417 26.0755 21.508 26.5418 22.0833 26.5418Z" fill="white"/>
<path d="M23.5417 29.0418C24.117 29.0418 24.5833 28.5755 24.5833 28.0002C24.5833 27.4249 24.117 26.9585 23.5417 26.9585C22.9664 26.9585 22.5 27.4249 22.5 28.0002C22.5 28.5755 22.9664 29.0418 23.5417 29.0418Z" fill="white"/>
<path d="M26.4583 29.0418C27.0336 29.0418 27.5 28.5755 27.5 28.0002C27.5 27.4249 27.0336 26.9585 26.4583 26.9585C25.883 26.9585 25.4167 27.4249 25.4167 28.0002C25.4167 28.5755 25.883 29.0418 26.4583 29.0418Z" fill="white"/>
<path d="M25 18.2748C24.5917 18.2748 24.2667 17.9498 24.2667 17.5414C24.2667 17.1331 24.5917 16.8081 25 16.8081C25.4083 16.8081 25.7333 17.1331 25.7333 17.5414C25.7333 17.9498 25.4083 18.2748 25 18.2748Z" fill="white"/>
<path d="M29.375 18.5C29.025 18.5 28.7417 18.2167 28.7417 17.875C28.7417 17.5333 29.025 17.25 29.3667 17.25C29.7083 17.25 30 17.5333 30 17.875C30 18.2167 29.725 18.5 29.375 18.5Z" fill="white"/>
<path d="M20.625 18.5C20.2833 18.5 20 18.2167 20 17.875C20 17.5333 20.275 17.25 20.625 17.25H20.6333C20.975 17.25 21.2583 17.5333 21.2583 17.875C21.2583 18.2167 20.975 18.5 20.625 18.5Z" fill="white"/>
<path d="M25 34.1498C24.5917 34.1498 24.2667 33.8248 24.2667 33.4164C24.2667 33.0081 24.5917 32.6831 25 32.6831C25.4083 32.6831 25.7333 33.0081 25.7333 33.4164C25.7333 33.8248 25.4083 34.1498 25 34.1498Z" fill="white"/>
<path d="M29.375 33.7085C29.025 33.7085 28.7417 33.4252 28.7417 33.0835C28.7417 32.7418 29.025 32.4585 29.3667 32.4585C29.7083 32.4585 30 32.7418 30 33.0835C30 33.4252 29.725 33.7085 29.375 33.7085Z" fill="white"/>
<path d="M20.625 33.7085C20.2833 33.7085 20 33.4252 20 33.0835C20 32.7418 20.275 32.4585 20.625 32.4585H20.6333C20.975 32.4585 21.2583 32.7418 21.2583 33.0835C21.2583 33.4252 20.975 33.7085 20.625 33.7085Z" fill="white"/>
<path d="M16.2917 26.2333C15.8917 26.2333 15.5583 25.9083 15.5583 25.5083V25.4999C15.5583 25.0999 15.8833 24.7666 16.2917 24.7666C16.7 24.7666 17.025 25.0916 17.025 25.4999C17.025 25.9083 16.6917 26.2333 16.2917 26.2333Z" fill="white"/>
<path d="M18.125 30.2915C17.7833 30.2915 17.5 30.0165 17.5 29.6665V29.6582C17.5 29.3165 17.7833 29.0332 18.125 29.0332C18.4667 29.0332 18.75 29.3165 18.75 29.6582C18.75 29.9999 18.4667 30.2915 18.125 30.2915Z" fill="white"/>
<path d="M18.125 21.9668C17.7833 21.9668 17.5 21.6835 17.5 21.3418C17.5 21.0001 17.7833 20.7168 18.125 20.7168C18.4667 20.7168 18.75 20.9918 18.75 21.3335V21.3418C18.75 21.6835 18.4667 21.9668 18.125 21.9668Z" fill="white"/>
<path d="M33.75 26.2333C33.35 26.2333 33.0167 25.9083 33.0167 25.5083V25.4999C33.0167 25.0999 33.3417 24.7666 33.75 24.7666C34.1583 24.7666 34.4833 25.0916 34.4833 25.4999C34.4833 25.9083 34.15 26.2333 33.75 26.2333Z" fill="white"/>
<path d="M31.9167 30.2915C31.575 30.2915 31.2917 30.0165 31.2917 29.6665V29.6582C31.2917 29.3165 31.575 29.0332 31.9167 29.0332C32.2583 29.0332 32.5417 29.3165 32.5417 29.6582C32.5417 29.9999 32.2583 30.2915 31.9167 30.2915Z" fill="white"/>
<path d="M31.9167 21.9668C31.575 21.9668 31.2917 21.6835 31.2917 21.3418C31.2917 21.0001 31.575 20.7168 31.9167 20.7168C32.2583 20.7168 32.5417 20.9918 32.5417 21.3418V21.3501C32.5417 21.6835 32.2583 21.9668 31.9167 21.9668Z" fill="white"/>
</svg>
