<svg width="40" height="40" viewBox="0 0 40 40" fill="none" xmlns="http://www.w3.org/2000/svg">
<rect width="40" height="40" rx="20" fill="white"/>
<path d="M22.2275 20.5625H21.65H18.1475V22.685H19.13H22.2275C22.94 22.685 23.525 22.205 23.525 21.62C23.525 21.035 22.94 20.5625 22.2275 20.5625Z" fill="#323233"/>
<path d="M20 12.5C15.86 12.5 12.5 15.86 12.5 20C12.5 24.14 15.86 27.5 20 27.5C24.14 27.5 27.5 24.14 27.5 20C27.5 15.86 24.14 12.5 20 12.5ZM22.2275 23.81H20.99V24.875C20.99 25.1825 20.735 25.4375 20.4275 25.4375C20.12 25.4375 19.865 25.1825 19.865 24.875V23.81H19.13H18.9575V24.875C18.9575 25.1825 18.7025 25.4375 18.395 25.4375C18.0875 25.4375 17.8325 25.1825 17.8325 24.875V23.81H17.585H16.2875C15.98 23.81 15.725 23.555 15.725 23.2475C15.725 22.94 15.98 22.685 16.2875 22.685H17.0225V20V17.315H16.2875C15.98 17.315 15.725 17.06 15.725 16.7525C15.725 16.445 15.98 16.19 16.2875 16.19H17.585H17.8325V15.125C17.8325 14.8175 18.0875 14.5625 18.395 14.5625C18.7025 14.5625 18.9575 14.8175 18.9575 15.125V16.19H19.13H19.865V15.125C19.865 14.8175 20.12 14.5625 20.4275 14.5625C20.735 14.5625 20.99 14.8175 20.99 15.125V16.19H21.65C22.8125 16.19 23.84 17.21 23.84 18.38C23.84 18.8825 23.66 19.34 23.375 19.715C24.1325 20.0825 24.65 20.8025 24.65 21.635C24.65 22.8275 23.5625 23.81 22.2275 23.81Z" fill="#323233"/>
<path d="M22.715 18.3726C22.715 17.8776 22.25 17.3076 21.65 17.3076H19.13H18.1475V19.4301H21.65C22.235 19.4376 22.715 18.9576 22.715 18.3726Z" fill="#323233"/>
</svg>
