<svg width="50" height="51" viewBox="0 0 50 51" fill="none" xmlns="http://www.w3.org/2000/svg">
<rect y="0.5" width="50" height="50" rx="25" fill="#323233"/>
<path d="M27.97 26.25H27.2H22.53V29.08H23.84H27.97C28.92 29.08 29.7 28.44 29.7 27.66C29.7 26.88 28.92 26.25 27.97 26.25Z" fill="white"/>
<path d="M25 15.5C19.48 15.5 15 19.98 15 25.5C15 31.02 19.48 35.5 25 35.5C30.52 35.5 35 31.02 35 25.5C35 19.98 30.52 15.5 25 15.5ZM27.97 30.58H26.32V32C26.32 32.41 25.98 32.75 25.57 32.75C25.16 32.75 24.82 32.41 24.82 32V30.58H23.84H23.61V32C23.61 32.41 23.27 32.75 22.86 32.75C22.45 32.75 22.11 32.41 22.11 32V30.58H21.78H20.05C19.64 30.58 19.3 30.24 19.3 29.83C19.3 29.42 19.64 29.08 20.05 29.08H21.03V25.5V21.92H20.05C19.64 21.92 19.3 21.58 19.3 21.17C19.3 20.76 19.64 20.42 20.05 20.42H21.78H22.11V19C22.11 18.59 22.45 18.25 22.86 18.25C23.27 18.25 23.61 18.59 23.61 19V20.42H23.84H24.82V19C24.82 18.59 25.16 18.25 25.57 18.25C25.98 18.25 26.32 18.59 26.32 19V20.42H27.2C28.75 20.42 30.12 21.78 30.12 23.34C30.12 24.01 29.88 24.62 29.5 25.12C30.51 25.61 31.2 26.57 31.2 27.68C31.2 29.27 29.75 30.58 27.97 30.58Z" fill="white"/>
<path d="M28.62 23.3302C28.62 22.6702 28 21.9102 27.2 21.9102H23.84H22.53V24.7402H27.2C27.98 24.7502 28.62 24.1102 28.62 23.3302Z" fill="white"/>
</svg>
