<svg width="40" height="40" viewBox="0 0 40 40" fill="none" xmlns="http://www.w3.org/2000/svg">
<rect width="40" height="40" rx="20" fill="white"/>
<path d="M17.5775 21.8226L18.785 22.3626C19.5575 22.7076 20.4425 22.7076 21.2225 22.3626L22.43 21.8226C23.51 21.3426 24.5075 22.6476 23.7575 23.5626L21.1625 26.7351C20.525 27.5151 19.4825 27.5151 18.8375 26.7351L16.25 23.5626C15.4925 22.6476 16.49 21.3426 17.5775 21.8226Z" fill="#323233"/>
<path d="M17.4275 19.7524C17.2025 19.9174 17.2325 20.2624 17.4875 20.3899L19.25 21.2674C19.6625 21.4774 20.33 21.4774 20.735 21.2674L22.4975 20.3899C22.745 20.2624 22.775 19.9249 22.5575 19.7524L20.225 17.9974C20.09 17.8999 19.91 17.8999 19.775 17.9974L17.4275 19.7524Z" fill="#323233"/>
<path d="M24.41 17.1799L21.2825 13.2799C21.2225 13.2049 21.155 13.1374 21.0875 13.0699C20.8925 12.8824 20.615 13.0549 20.615 13.3249V16.5499C20.615 16.6699 20.6675 16.7824 20.765 16.8499L23.8775 19.1899L24.0125 19.2874C24.1475 19.3849 24.335 19.3849 24.4475 19.2649C24.9725 18.6949 24.965 17.8699 24.41 17.1799Z" fill="#323233"/>
<path d="M15.5825 17.2476L18.695 13.2876C18.755 13.2126 18.815 13.1451 18.8825 13.0776C19.0775 12.8901 19.355 13.0551 19.355 13.3326V16.6101C19.355 16.7301 19.3025 16.8351 19.205 16.9101L16.1075 19.2876L15.98 19.3851C15.845 19.4826 15.6575 19.4826 15.5375 19.3551C15.0275 18.7776 15.035 17.9526 15.5825 17.2476Z" fill="#323233"/>
</svg>
