<svg width="50" height="51" viewBox="0 0 50 51" fill="none" xmlns="http://www.w3.org/2000/svg">
<rect y="0.5" width="50" height="50" rx="25" fill="#323233"/>
<path d="M21.77 27.9301L23.38 28.6501C24.41 29.1101 25.59 29.1101 26.63 28.6501L28.24 27.9301C29.68 27.2901 31.01 29.0301 30.01 30.2501L26.55 34.4801C25.7 35.5201 24.31 35.5201 23.45 34.4801L20 30.2501C18.99 29.0301 20.32 27.2901 21.77 27.9301Z" fill="white"/>
<path d="M21.57 25.1699C21.27 25.3899 21.31 25.8499 21.65 26.0199L24 27.1899C24.55 27.4699 25.44 27.4699 25.98 27.1899L28.33 26.0199C28.66 25.8499 28.7 25.3999 28.41 25.1699L25.3 22.8299C25.12 22.6999 24.88 22.6999 24.7 22.8299L21.57 25.1699Z" fill="white"/>
<path d="M30.88 21.7402L26.71 16.5402C26.63 16.4402 26.54 16.3502 26.45 16.2602C26.19 16.0102 25.82 16.2402 25.82 16.6002V20.9002C25.82 21.0602 25.89 21.2102 26.02 21.3002L30.17 24.4202L30.35 24.5502C30.53 24.6802 30.78 24.6802 30.93 24.5202C31.63 23.7602 31.62 22.6602 30.88 21.7402Z" fill="white"/>
<path d="M19.11 21.8298L23.26 16.5498C23.34 16.4498 23.42 16.3598 23.51 16.2698C23.77 16.0198 24.14 16.2398 24.14 16.6098V20.9798C24.14 21.1398 24.07 21.2798 23.94 21.3798L19.81 24.5498L19.64 24.6798C19.46 24.8098 19.21 24.8098 19.05 24.6398C18.37 23.8698 18.38 22.7698 19.11 21.8298Z" fill="white"/>
</svg>
