<svg width="50" height="50" viewBox="0 0 50 50" fill="none" xmlns="http://www.w3.org/2000/svg">
<rect width="50" height="50" rx="25" fill="#5D5E60"/>
<path d="M25 22C24.2044 22 23.4413 22.3161 22.8787 22.8787C22.3161 23.4413 22 24.2044 22 25C22 25.7956 22.3161 26.5587 22.8787 27.1213C23.4413 27.6839 24.2044 28 25 28C25.7956 28 26.5587 27.6839 27.1213 27.1213C27.6839 26.5587 28 25.7956 28 25C28 24.2044 27.6839 23.4413 27.1213 22.8787C26.5587 22.3161 25.7956 22 25 22Z" fill="white"/>
<path fill-rule="evenodd" clip-rule="evenodd" d="M25 17C21.9686 17 19.2429 18.2935 17.2792 19.896C16.2949 20.6985 15.4879 21.5895 14.9217 22.456C14.3659 23.3077 14 24.2012 14 25C14 25.7988 14.3671 26.6923 14.9217 27.5428C15.4891 28.4105 16.2949 29.3015 17.2792 30.1028C19.2429 31.7077 21.9686 33 25 33C28.0314 33 30.7571 31.7065 32.7208 30.104C33.7051 29.3015 34.5121 28.4105 35.0772 27.544C35.6329 26.6923 36 25.7988 36 25C36 24.2012 35.6329 23.3077 35.0772 22.4572C34.5121 21.5895 33.7051 20.6985 32.7208 19.8972C30.7571 18.2923 28.0314 17 25 17ZM20.6579 25C20.6579 23.7759 21.1154 22.602 21.9297 21.7364C22.744 20.8709 23.8484 20.3846 25 20.3846C26.1516 20.3846 27.256 20.8709 28.0703 21.7364C28.8846 22.602 29.3421 23.7759 29.3421 25C29.3421 26.2241 28.8846 27.398 28.0703 28.2636C27.256 29.1291 26.1516 29.6154 25 29.6154C23.8484 29.6154 22.744 29.1291 21.9297 28.2636C21.1154 27.398 20.6579 26.2241 20.6579 25Z" fill="white"/>
</svg>
