<svg width="71" height="70" viewBox="0 0 71 70" fill="none" xmlns="http://www.w3.org/2000/svg">
<rect x="0.5" width="70" height="70" rx="15" fill="#5D5E60"/>
<path d="M39.9062 16.25H31.0937C29.1437 16.25 27.55 17.825 27.55 19.775V21.5375C27.55 23.4875 29.125 25.0625 31.075 25.0625H39.9062C41.8562 25.0625 43.4312 23.4875 43.4312 21.5375V19.775C43.45 17.825 41.8562 16.25 39.9062 16.25Z" fill="white"/>
<path d="M45.325 21.5375C45.325 24.5188 42.8875 26.9563 39.9063 26.9563H31.0938C28.1125 26.9563 25.675 24.5188 25.675 21.5375C25.675 20.4875 24.55 19.8313 23.6125 20.3188C20.9688 21.725 19.1688 24.5188 19.1688 27.725V45.3688C19.1688 49.9813 22.9375 53.75 27.55 53.75H43.45C48.0625 53.75 51.8313 49.9813 51.8313 45.3688V27.725C51.8313 24.5188 50.0313 21.725 47.3875 20.3188C46.45 19.8313 45.325 20.4875 45.325 21.5375ZM36.2125 44.2813H28C27.2313 44.2813 26.5938 43.6438 26.5938 42.875C26.5938 42.1063 27.2313 41.4688 28 41.4688H36.2125C36.9813 41.4688 37.6188 42.1063 37.6188 42.875C37.6188 43.6438 36.9813 44.2813 36.2125 44.2813ZM41.125 36.7813H28C27.2313 36.7813 26.5938 36.1438 26.5938 35.375C26.5938 34.6063 27.2313 33.9688 28 33.9688H41.125C41.8938 33.9688 42.5313 34.6063 42.5313 35.375C42.5313 36.1438 41.8938 36.7813 41.125 36.7813Z" fill="white"/>
</svg>
