<svg width="20" height="20" viewBox="0 0 20 20" fill="none" xmlns="http://www.w3.org/2000/svg">
<path d="M17.5 17.5002L13.8808 13.881L17.5 17.5002ZM13.8808 13.881C14.4999 13.2619 14.991 12.527 15.326 11.7181C15.6611 10.9093 15.8335 10.0423 15.8335 9.16684C15.8335 8.29134 15.6611 7.42441 15.326 6.61555C14.991 5.80669 14.4999 5.07174 13.8808 4.45267C13.2618 3.8336 12.5268 3.34252 11.718 3.00748C10.9091 2.67244 10.0422 2.5 9.16667 2.5C8.29116 2.5 7.42424 2.67244 6.61538 3.00748C5.80652 3.34252 5.07157 3.8336 4.4525 4.45267C3.20223 5.70295 2.49983 7.39868 2.49983 9.16684C2.49983 10.935 3.20223 12.6307 4.4525 13.881C5.70277 15.1313 7.39851 15.8337 9.16667 15.8337C10.9348 15.8337 12.6306 15.1313 13.8808 13.881Z" fill="white"/>
<path d="M17.5 17.5002L13.8808 13.881M13.8808 13.881C14.4999 13.2619 14.991 12.527 15.326 11.7181C15.6611 10.9093 15.8335 10.0423 15.8335 9.16684C15.8335 8.29134 15.6611 7.42441 15.326 6.61555C14.991 5.80669 14.4999 5.07174 13.8808 4.45267C13.2618 3.8336 12.5268 3.34252 11.718 3.00748C10.9091 2.67244 10.0422 2.5 9.16667 2.5C8.29116 2.5 7.42424 2.67244 6.61538 3.00748C5.80652 3.34252 5.07157 3.8336 4.4525 4.45267C3.20223 5.70295 2.49983 7.39868 2.49983 9.16684C2.49983 10.935 3.20223 12.6307 4.4525 13.881C5.70277 15.1313 7.39851 15.8337 9.16667 15.8337C10.9348 15.8337 12.6306 15.1313 13.8808 13.881Z" stroke="white" stroke-width="2" stroke-linecap="round" stroke-linejoin="round"/>
</svg>
