<svg width="50" height="51" viewBox="0 0 50 51" fill="none" xmlns="http://www.w3.org/2000/svg">
<rect y="0.5" width="50" height="50" rx="25" fill="#323233"/>
<path d="M32.3333 17.7085H19.0417C18.7575 17.7085 18.4825 17.846 18.3083 18.0752L16.9333 19.9085C16.4842 20.5135 16.915 21.3752 17.6667 21.3752H30.9583C31.2425 21.3752 31.5175 21.2377 31.6916 21.0085L33.0666 19.1752C33.5158 18.5702 33.085 17.7085 32.3333 17.7085Z" fill="white"/>
<path d="M17.6667 23.6665H30.9583C31.2425 23.6665 31.5175 23.804 31.6916 24.0332L33.0666 25.8665C33.5158 26.4715 33.085 27.3332 32.3333 27.3332H19.0417C18.7575 27.3332 18.4825 27.1957 18.3083 26.9665L16.9333 25.1332C16.4842 24.5282 16.915 23.6665 17.6667 23.6665Z" fill="white"/>
<path d="M32.3333 29.625H19.0417C18.7575 29.625 18.4825 29.7625 18.3083 29.9917L16.9333 31.825C16.4842 32.43 16.915 33.2917 17.6667 33.2917H30.9583C31.2425 33.2917 31.5175 33.1542 31.6916 32.925L33.0666 31.0917C33.5158 30.4867 33.085 29.625 32.3333 29.625Z" fill="white"/>
</svg>
