<svg width="50" height="51" viewBox="0 0 50 51" fill="none" xmlns="http://www.w3.org/2000/svg">
<rect y="0.5" width="50" height="50" rx="25" fill="#323233"/>
<path d="M34.71 23.3999L32.31 18.5799C31.84 17.6299 30.59 16.8599 29.53 16.8599H20.47C19.41 16.8599 18.16 17.6299 17.69 18.5799L15.29 23.3999C14.71 24.5599 15.03 26.2099 15.98 27.0799L22.91 33.3699C24.06 34.4099 25.93 34.4099 27.08 33.3699L34.01 27.0799C34.97 26.2099 35.29 24.5499 34.71 23.3999ZM29 22.7499H25.75V27.9999C25.75 28.4099 25.41 28.7499 25 28.7499C24.59 28.7499 24.25 28.4099 24.25 27.9999V22.7499H21C20.59 22.7499 20.25 22.4099 20.25 21.9999C20.25 21.5899 20.59 21.2499 21 21.2499H29C29.41 21.2499 29.75 21.5899 29.75 21.9999C29.75 22.4099 29.41 22.7499 29 22.7499Z" fill="white"/>
</svg>
