<svg width="40" height="40" viewBox="0 0 40 40" fill="none" xmlns="http://www.w3.org/2000/svg">
<rect width="40" height="40" rx="20" fill="white"/>
<path d="M27.2825 18.425L25.4825 14.81C25.13 14.0975 24.1925 13.52 23.3975 13.52H16.6025C15.8075 13.52 14.87 14.0975 14.5175 14.81L12.7174 18.425C12.2824 19.295 12.5224 20.5325 13.2349 21.185L18.4325 25.9025C19.295 26.6825 20.6975 26.6825 21.56 25.9025L26.7574 21.185C27.4774 20.5325 27.7175 19.2875 27.2825 18.425ZM23 17.9375H20.5625V21.875C20.5625 22.1825 20.3075 22.4375 20 22.4375C19.6925 22.4375 19.4375 22.1825 19.4375 21.875V17.9375H17C16.6925 17.9375 16.4375 17.6825 16.4375 17.375C16.4375 17.0675 16.6925 16.8125 17 16.8125H23C23.3075 16.8125 23.5625 17.0675 23.5625 17.375C23.5625 17.6825 23.3075 17.9375 23 17.9375Z" fill="#323233"/>
</svg>
