<svg width="32" height="28" viewBox="0 0 32 28" fill="none" xmlns="http://www.w3.org/2000/svg">
<path d="M19.7387 11.5C18.8743 11.5 18.0963 11.3889 17.4047 11.1667C16.7132 10.9222 16.0648 10.6556 15.4597 10.3667C14.8834 10.0778 14.3071 9.82222 13.7308 9.6C13.1546 9.37778 12.5494 9.26667 11.9155 9.26667C10.3307 9.26667 9.39424 10 9.10609 11.4667H5C5.46103 9.37778 6.32547 7.86667 7.59332 6.93333C8.86117 5.97778 10.4028 5.5 12.2181 5.5C13.1113 5.5 13.9037 5.61111 14.5953 5.83333C15.3157 6.05556 15.964 6.31111 16.5403 6.6C17.1454 6.88889 17.7361 7.14444 18.3124 7.36667C18.8887 7.58889 19.4794 7.7 20.0845 7.7C20.8337 7.7 21.4532 7.51111 21.943 7.13333C22.4329 6.75556 22.7354 6.21111 22.8507 5.5H27C26.5678 7.58889 25.7177 9.11111 24.4499 10.0667C23.1821 11.0222 21.6117 11.5 19.7387 11.5Z" fill="#7F8083"/>
<path d="M19.7387 22.5C18.8743 22.5 18.0963 22.3704 17.4047 22.1111C16.7132 21.8259 16.0648 21.5148 15.4597 21.1778C14.8834 20.8407 14.3071 20.5426 13.7308 20.2833C13.1546 20.0241 12.5494 19.8944 11.9155 19.8944C10.3307 19.8944 9.39424 20.75 9.10609 22.4611H5C5.46103 20.0241 6.32547 18.2611 7.59332 17.1722C8.86117 16.0574 10.4028 15.5 12.2181 15.5C13.1113 15.5 13.9037 15.6296 14.5953 15.8889C15.3157 16.1481 15.964 16.4463 16.5403 16.7833C17.1454 17.1204 17.7361 17.4185 18.3124 17.6778C18.8887 17.937 19.4794 18.0667 20.0845 18.0667C20.8337 18.0667 21.4532 17.8463 21.943 17.4056C22.4329 16.9648 22.7354 16.3296 22.8507 15.5H27C26.5678 17.937 25.7177 19.713 24.4499 20.8278C23.1821 21.9426 21.6117 22.5 19.7387 22.5Z" fill="#7F8083"/>
</svg>
