<svg width="35" height="35" viewBox="0 0 35 35" fill="none" xmlns="http://www.w3.org/2000/svg">
<rect width="35" height="35" rx="17.5" fill="#5D5E60"/>
<path d="M16.8746 14.2334V16.6167L16.0329 16.3251C15.6079 16.1751 15.3496 16.0334 15.3496 15.3084C15.3496 14.7167 15.7913 14.2334 16.3329 14.2334H16.8746Z" fill="white"/>
<path d="M19.65 19.6916C19.65 20.2833 19.2083 20.7666 18.6667 20.7666H18.125V18.3833L18.9667 18.675C19.3917 18.825 19.65 18.9666 19.65 19.6916Z" fill="white"/>
<path d="M20.6425 10H14.3575C11.6275 10 10 11.6275 10 14.3575V20.6425C10 23.3725 11.6275 25 14.3575 25H20.6425C23.3725 25 25 23.3725 25 20.6425V14.3575C25 11.6275 23.3725 10 20.6425 10ZM19.195 17.5C19.78 17.7025 20.56 18.13 20.56 19.4725C20.56 20.6275 19.66 21.565 18.55 21.565H18.0625V22C18.0625 22.3075 17.8075 22.5625 17.5 22.5625C17.1925 22.5625 16.9375 22.3075 16.9375 22V21.565H16.6675C15.4375 21.565 14.44 20.5225 14.44 19.2475C14.44 18.94 14.6875 18.685 15.0025 18.685C15.31 18.685 15.565 18.94 15.565 19.2475C15.565 19.9075 16.06 20.44 16.6675 20.44H16.9375V17.8975L15.805 17.5C15.22 17.2975 14.44 16.87 14.44 15.5275C14.44 14.3725 15.34 13.435 16.45 13.435H16.9375V13C16.9375 12.6925 17.1925 12.4375 17.5 12.4375C17.8075 12.4375 18.0625 12.6925 18.0625 13V13.435H18.3325C19.5625 13.435 20.56 14.4775 20.56 15.7525C20.56 16.06 20.3125 16.315 19.9975 16.315C19.69 16.315 19.435 16.06 19.435 15.7525C19.435 15.0925 18.94 14.56 18.3325 14.56H18.0625V17.1025L19.195 17.5Z" fill="white"/>
</svg>
